<svg style="border-radius:3px" viewBox="0 0 48 48" xmlns="http://www.w3.org/2000/svg"
   xmlns:svg="http://www.w3.org/2000/svg">
   <rect fill="#008000" stroke="#6acf65" stroke-width="2.5" width="45.5" height="45.5" x="1.25" y="1.25" />
   <path
      d="m 20.800008,28.444446 h 3.733332 v 1.77778 h -2.666664 l -4.37334,5.33333 H 9.6 v -1.77778 h 6.82668 z M 28.8,25.777776 H 9.6 v -1.77778 h 19.2 z"
      fill="#6acf65" />
   <path d="m 9.6,34.666666 m 3.200004,0 a 3.2000003,2.6666669 0 1 0 -6.399996,0 3.2000003,2.6666669 0 1 0 6.399996,0 z"
      fill="#ffe680" />
   <path
      d="m 9.6,31.111106 c 2.346672,0 4.266672,1.6 4.266672,3.55556 0,1.95556 -1.92,3.55556 -4.266672,3.55556 -2.346672,0 -4.266672,-1.6 -4.266672,-3.55556 0,-1.95556 1.92,-3.55556 4.266672,-3.55556 z m 0,5.33334 c 1.173336,0 2.133336,-0.8 2.133336,-1.77778 0,-0.97777 -0.96,-1.77777 -2.133336,-1.77777 -1.173324,0 -2.133324,0.8 -2.133324,1.77777 0,0.97778 0.96,1.77778 2.133324,1.77778 z m 0,-22.222221 h 7.893336 l 4.266672,5.333331 H 28.8 v 1.77778 H 20.586672 L 16.42668,16 H 9.6 Z"
      fill="#6acf65" />
   <path d="m 9.6,15.111108 m 3.200004,0 a 3.2000003,2.6666669 0 1 0 -6.399996,0 3.2000003,2.6666669 0 1 0 6.399996,0 z"
      fill="#ffe680" />
   <path
      d="m 9.6,11.555558 c 2.346672,0 4.266672,1.6 4.266672,3.55555 0,1.955558 -1.92,3.555558 -4.266672,3.555558 -2.346672,0 -4.266672,-1.6 -4.266672,-3.555558 0,-1.95555 1.92,-3.55555 4.266672,-3.55555 z m 0,5.333338 c 1.173336,0 2.133336,-0.800004 2.133336,-1.777788 0,-0.977775 -0.96,-1.777775 -2.133336,-1.777775 -1.173324,0 -2.133324,0.8 -2.133324,1.777775 0,0.977784 0.96,1.777788 2.133324,1.777788 z"
      fill="#6acf65" />
   <path d="m 9.6,24.888896 m 3.200004,0 a 3.2000003,2.6666669 0 1 0 -6.399996,0 3.2000003,2.6666669 0 1 0 6.399996,0 z"
      fill="#ffe680" />
   <path
      d="m 9.6,21.333336 c 2.346672,0 4.266672,1.6 4.266672,3.55556 0,1.95555 -1.92,3.55555 -4.266672,3.55555 -2.346672,0 -4.266672,-1.6 -4.266672,-3.55555 0,-1.95556 1.92,-3.55556 4.266672,-3.55556 z m 0,5.33333 c 1.173336,0 2.133336,-0.8 2.133336,-1.77777 0,-0.97779 -0.96,-1.77779 -2.133336,-1.77779 -1.173324,0 -2.133324,0.8 -2.133324,1.77779 0,0.97777 0.96,1.77777 2.133324,1.77777 z m 10.66668,-20.088891 6.826656,8.533333 h 8.106672 v 1.777788 H 26.02668 L 18.453336,7.555558 Z"
      fill="#6acf65" />
   <path d="m 19.2,7.111108 m 3.200004,0 a 3.2000004,2.666667 0 1 0 -6.399996,0 3.2000004,2.666667 0 1 0 6.399996,0 z"
      fill="#ffe680" />
   <path
      d="m 19.2,3.555558 c 2.346672,0 4.266672,1.6 4.266672,3.55555 0,1.9555591 -1.92,3.555559 -4.266672,3.555559 -2.34666,0 -4.26666,-1.5999999 -4.26666,-3.555559 0,-1.95555 1.92,-3.55555 4.26666,-3.55555 z m 0,5.3333341 c 1.173336,0 2.133336,-0.8000001 2.133336,-1.7777841 0,-0.977775 -0.96,-1.777775 -2.133336,-1.777775 -1.173324,0 -2.133324,0.8 -2.133324,1.777775 0,0.977784 0.96,1.7777841 2.133324,1.7777841 z m 6.82668,24.0000039 h 8.10666 v 1.77777 H 27.093336 L 20.16,41.422226 18.560004,40.266666 Z"
      fill="#6acf65" />
   <path d="m 19.2,40.888896 m 3.200004,0 a 3.2000004,2.666667 0 1 0 -6.399996,0 3.2000004,2.666667 0 1 0 6.399996,0 z"
      fill="#ffe680" />
   <path
      d="m 19.2,37.333336 c 2.346672,0 4.266672,1.6 4.266672,3.55556 0,1.95555 -1.92,3.55555 -4.266672,3.55555 -2.34666,0 -4.26666,-1.6 -4.26666,-3.55555 0,-1.95556 1.92,-3.55556 4.26666,-3.55556 z m 0,5.33333 c 1.173336,0 2.133336,-0.8 2.133336,-1.77777 0,-0.97779 -0.96,-1.77779 -2.133336,-1.77779 -1.173324,0 -2.133324,0.8 -2.133324,1.77779 0,0.97777 0.96,1.77777 2.133324,1.77777 z M 35.200008,25.777776 H 28.8 v -1.77778 h 6.400008 z m 11.733324,-4.44444 H 28.8 v -1.77778 h 18.133332 z m -3.199992,4.44444 h -2.133336 v -1.77778 h 2.133336 z m -4.26666,0 h -2.133348 v -1.77778 H 39.46668 Z M 38.4,34.666666 h -2.133324 v -1.77777 H 38.4 Z m 1.06668,-17.77777 h -2.133348 v -1.777788 h 2.133348 z m 4.26666,0 H 41.600004 V 15.111108 H 43.73334 Z M 28.8,30.222226 h -2.133324 v -1.77778 H 28.8 Z"
      fill="#6acf65" />
   <path
      d="M 45.866676,23.111106 H 48 v 2.66667 c 0,2.48889 -2.34666,4.44445 -5.333328,4.44445 H 30.933336 v -1.77778 h 11.733336 c 1.813332,0 3.200004,-1.15555 3.200004,-2.66667 z m -5.33334,9.77779 h 2.133336 c 2.986668,0 5.333328,1.95555 5.333328,4.44444 h -2.133324 c 0,-1.51111 -1.386672,-2.66667 -3.200004,-2.66667 h -2.133336 z"
      fill="#6acf65" />
   <path
      d="m 7.2246568,40.587825 c 0.00376,-1.508647 0.8610155,-2.9836 2.2573562,-4.634502 L 1.4071947,30.847132 C 0.89807299,30.626263 0.90930429,30.31555 1.2050435,29.948682 l 1.7107986,-1.45998 c 0.3107132,-0.190921 0.6401454,-0.273279 0.9957818,-0.175947 l 9.9653091,1.684594 8.30317,-8.991987 L 2.7960487,7.8917367 C 2.3056437,7.603484 2.2644654,7.2777956 2.7698496,6.8996976 L 5.5662753,4.6685481 30.835182,11.770046 38.299801,3.7888169 c 2.504425,-2.1675116 4.937729,-3.13708814 6.805761,-2.6766323 1.02947,0.2545609 1.392587,0.5615314 1.710792,1.5273641 0.617686,1.8942319 -0.340661,4.4398395 -2.605502,7.0603183 l -7.981233,7.464622 7.101501,25.268903 -2.231152,2.796424 c -0.378091,0.501635 -0.703781,0.460455 -0.992038,-0.0262 L 26.990557,25.8233 l -8.991984,8.299431 1.684587,9.965305 c 0.09734,0.351893 0.01869,0.681325 -0.17594,0.995782 l -1.459982,1.710798 c -0.363122,0.295739 -0.67758,0.306971 -0.898447,-0.202151 L 12.0426,38.517647 C 10.384209,39.917731 8.9092542,40.775003 7.3931203,40.775003 7.2546102,40.771239 7.224661,40.722594 7.224661,40.587825 Z"
      fill="#ffffff" opacity="0.8" />
</svg>