<svg viewBox="0 0 48 48" xmlns="http://www.w3.org/2000/svg" xmlns:svg="http://www.w3.org/2000/svg">
  <title>
    jFrog
  </title>
  <path fill-rule="evenodd" clip-rule="evenodd"
    d="m 46.263916,32.722617 -1.178604,-1.883391 c -0.653093,0.620261 -1.452485,0.974634 -2.231933,0.974634 -0.357901,0 -0.54668,-0.04385 -1.326128,-0.243208 -0.778585,-0.222258 -1.32656,-0.288712 -1.936454,-0.288712 -2.758453,0 -4.547599,1.507131 -4.547599,3.834029 0,1.683741 0.758137,2.72555 2.31617,3.146521 -0.631709,0.1553 -1.326704,0.487786 -1.642342,0.864838 -0.231617,0.265816 -0.33659,0.619686 -0.33659,1.040513 0,0.355525 0.08431,0.665404 0.210161,0.93122 0.147092,0.243785 0.357758,0.443291 0.610758,0.553735 0.504561,0.199506 1.325984,0.332342 2.589042,0.35495 0.653021,0 1.052968,0.02218 1.200348,0.02218 0.779161,0.04442 1.178749,0.176683 1.473868,0.33227 0.294399,0.177475 0.504992,0.576415 0.504992,1.019129 0,0.443435 -0.273663,0.886582 -0.673539,1.152686 -0.378853,0.265816 -0.989754,0.376908 -1.78965,0.376908 -1.305537,0 -2.021196,-0.487785 -2.021196,-1.396614 0,-0.39894 0.04212,-0.487785 0.126285,-0.731282 h -2.610426 c -0.105117,0.22125 -0.252136,0.531632 -0.252136,1.152542 0,0.775848 0.294255,1.440316 0.883773,2.016587 0.968803,0.953107 2.547644,1.218563 4.084365,1.218563 1.683814,0 3.305421,-0.398436 4.252336,-1.46278 0.589087,-0.664756 0.862894,-1.395894 0.862894,-2.348497 0,-1.019345 -0.294327,-1.795122 -0.92582,-2.415383 -0.758641,-0.731858 -1.620959,-0.997818 -3.263014,-1.019706 l -1.516346,-0.02189 c -0.294399,0 -0.462442,-0.110373 -0.462442,-0.265816 0,-0.310527 0.399228,-0.576559 1.115174,-0.930716 0.210882,0.02189 0.294976,0.02189 0.420828,0.02189 2.294787,0 3.979248,-1.418069 3.979248,-3.367986 0,-0.753746 -0.210522,-1.32944 -0.632069,-1.861216 0.358621,0.04385 0.463522,0.06631 0.73733,0.06631 0.778584,0 1.367959,-0.243929 1.978716,-0.842303 z M 48,21.724372 c 0,-1.274362 -0.785712,-2.454982 -2.121848,-3.424865 0.120524,0.389436 0.188202,0.78528 0.188202,1.188972 0,3.649139 -5.095142,6.771325 -12.318469,8.064118 0.817031,0.09209 1.664518,0.142483 2.536052,0.142483 C 42.754742,27.69508 48,25.021729 48,21.724372 Z m -4.163851,-1.984908 c 0,3.502046 -7.833076,6.340633 -17.495905,6.340633 -9.662325,0 -17.4948976,-2.838587 -17.4948976,-6.340633 0,-1.103007 0.7772166,-2.139776 2.1438076,-3.042701 -0.211242,0.387205 -0.32327,0.787801 -0.32327,1.198332 0,3.235007 6.8894,5.857456 15.388456,5.857456 8.499273,0 15.389321,-2.622449 15.389321,-5.857456 0,-0.611693 -0.248248,-1.202364 -0.705866,-1.757467 1.951645,1.023377 3.098354,2.263972 3.098354,3.601836 z M 10.778344,14.133928 c -3.5292616,0.862319 -5.9265807,2.5511 -5.9265807,4.493169 0,1.20222 0.9195203,2.306091 2.4549894,3.178201 -0.4611462,-0.737978 -0.7122171,-1.514403 -0.7122171,-2.316819 0,-2.019971 1.5644554,-3.877731 4.1838084,-5.354551 z M 45.29065,8.4401958 c -0.324567,-0.3906602 -0.769225,-0.3894362 -1.119999,-0.07171 -0.338822,0.4490505 -0.348469,0.7685769 -0.107997,1.0166814 0.256457,0.26524 0.788233,0.4937611 1.171117,0.1898583 C 45.6168,9.2698989 45.61536,8.8307841 45.29065,8.4401958 Z M 40.845071,9.896136 c 1.095231,-1.527362 3.19044,1.173493 0.815448,1.549393 -0.950372,0.150548 -2.555131,1.190125 -3.243791,2.831027 -0.972402,2.428343 -0.551575,4.225625 -2.223293,5.306672 -3.565044,2.303427 -14.548098,3.172585 -19.277348,0.21765 C 13.208919,17.484708 14.480905,13.812602 3.8769702,5.7198226 2.4902559,4.6621456 4.1325913,3.5391882 5.1712753,4.2579354 6.2098368,4.9774961 5.259199,5.1685352 7.3540552,7.2648961 11.585296,11.497584 11.542745,7.6922824 12.210957,9.131591 c 1.40511,3.026789 4.50476,6.075105 4.50476,6.075105 3.104259,2.020619 5.583216,2.462254 10.162207,-0.636029 2.903888,-1.964749 1.715996,3.124922 8.83759,-0.543223 2.597178,-1.338152 2.489181,-0.450923 5.129629,-4.131308 z M 9.9454732,6.0132786 C 9.7660546,5.7607102 9.2326227,5.6444697 8.8758014,6.0035084 8.5195562,6.3625256 8.6947989,6.7174966 8.9007847,6.9308477 9.1963358,7.2364281 9.6972247,7.2113153 9.9951518,7.0452739 10.294447,6.8796501 10.231521,6.4161064 9.9454732,6.0132786 Z M 2.5834787,3.2038727 C 2.8160677,2.9485252 3.1097973,2.4654413 2.6052437,1.5407587 2.2370108,0.86386534 1.0192898,0.58731591 0.58951316,0.84544398 0.16112605,1.1044375 -0.36296274,2.1039258 0.35467063,2.543739 1.2793748,3.1112187 1.8855101,3.9688137 2.5834787,3.2038727 Z M 46.48675,1.9480505 c -0.325647,-0.473141 -1.01301,-0.3874779 -1.69339,0.1063336 -0.680811,0.49325 -0.552007,1.4310721 -0.326942,1.6494344 0.394764,0.3840004 1.447013,0.1247578 1.692165,-0.1502739 C 46.790076,2.847217 46.81218,2.4210835 46.48675,1.9480505 Z m -3.917259,3.003512 c 0.974491,-0.4595046 2.506965,1.0340761 0.289072,2.1552479 -3.169777,1.6032333 -3.505791,3.5923176 -5.50841,4.8571036 -3.367843,2.127176 -2.337338,0.08589 -7.754959,-0.686644 -2.086353,-0.297639 -2.757517,2.029907 -4.386252,1.357232 -3.754903,-1.550978 -6.377496,-1.253987 -8.809583,0.724154 -0.880317,-0.388284 -1.80153,-1.887495 -2.162527,-2.488605 0.98601,-0.9657072 0.587862,-2.5796826 0.03103,-3.4647519 -0.556111,-0.8850838 -1.229867,-0.6339266 -1.969429,-1.4482509 -0.740209,-0.8132083 0.27892,-2.9358268 1.226772,-1.3052199 3.551221,6.1099377 5.882654,3.5684862 8.783447,3.2040332 2.783868,-0.3495495 5.244754,1.1667968 5.99922,-3.1282627 0.124052,-0.7020076 0.807887,-0.8700146 0.877653,0.2909289 0.06948,1.1617642 0.505425,3.990523 2.036099,4.355624 1.530314,0.3645971 2.745349,-0.3584772 3.103683,-0.7597931 0.358477,-0.4013159 0.546175,-0.3429977 0.703418,0.6528764 0.157892,0.996666 0.54596,2.373049 2.694951,0.839855 4.39518,-3.1361755 3.137594,-4.3495837 4.845815,-5.1555275 z m -13.063718,-2.8701 c 0.01418,-0.5019257 -0.213762,-0.8165563 -0.708819,-0.798852 -0.494985,0.017999 -0.67246,0.267076 -0.656404,0.7515422 0.123476,0.917022 0.277695,0.8951059 0.606005,0.9798041 0.328311,0.084842 0.744962,-0.431015 0.759218,-0.9324943 z M 11.885167,2.9433701 c 0.215561,-0.2718134 0.236225,-0.6295922 -0.04982,-1.0328377 -0.179202,-0.252302 -1.017545,-0.4253128 -1.373358,-0.066418 -0.356894,0.3592836 -0.03218,0.9235666 0.24544,1.0091001 0.514209,0.158388 0.742658,0.637548 1.177741,0.090156 z M 41.275114,35.137856 c 0,1.041737 -0.610901,1.617504 -1.726652,1.617504 -0.989538,0 -1.663222,-0.464818 -1.663222,-1.617504 0,-1.063696 0.610758,-1.684101 1.684462,-1.684101 1.073703,0 1.705412,0.620405 1.705412,1.684101 z m -8.084348,6.360145 c 0.927188,-1.108479 1.347295,-2.437991 1.347295,-4.387836 0,-1.839329 -0.378708,-3.079851 -1.241531,-4.144195 -0.926684,-1.15211 -2.126168,-1.705773 -3.663537,-1.705773 -2.904825,0 -4.841711,2.370385 -4.841711,5.938957 0,3.567421 1.915503,5.872216 4.841711,5.872216 1.66315,0 2.736853,-0.598158 3.557773,-1.573369 z m -1.725932,-4.409723 c 0,2.681559 -0.525945,3.833164 -1.746884,3.833164 -0.547903,0 -1.178892,-0.309662 -1.431893,-0.929996 -0.231329,-0.577134 -0.358477,-1.552201 -0.358477,-2.859106 0,-1.130222 0.105621,-1.927814 0.295119,-2.52626 0.231329,-0.708962 0.778657,-1.152325 1.452412,-1.152325 0.505137,0 0.947204,0.221609 1.221084,0.598518 0.378996,0.509313 0.568639,1.506411 0.568639,3.036005 z M 4.6161936,44.8657 5.9836412,46.461244 C 7.3103526,45.929468 8.9734305,44.733512 9.3943298,42.850048 9.5416374,42.229139 9.6044195,41.830271 9.6044195,39.835139 V 27.505726 H 6.6158614 v 12.662115 c 0,1.66243 -0.063077,2.282619 -0.2949751,2.836427 C 6.0473881,43.625033 5.3730204,44.378274 4.6161936,44.8657 Z M 11.52237,27.470663 h -0.306999 v 15.35685 h 2.947087 v -6.803651 h 3.72632 V 33.49861 h -3.72632 v -3.524222 h 4.65214 l 0.180571,-1.340816 c -2.79546,-0.213761 -5.335976,-0.663676 -7.472799,-1.162909 z m 9.797681,3.744967 c 0.252856,0.465898 0.399516,0.975211 0.442067,1.61808 0.400308,-0.576415 1.073991,-1.174789 1.599935,-1.441253 0.232193,-0.110517 0.610614,-0.176827 0.926469,-0.176827 0.420827,0 0.610181,0.04457 1.052248,0.243785 l -0.778729,2.614745 c -0.273519,-0.154723 -0.504992,-0.221465 -0.820775,-0.221465 -0.631637,0 -1.200132,0.310527 -1.72658,0.952747 v 8.022071 h -2.820731 v -7.579284 c 0,-1.529018 -0.168547,-2.681199 -0.40002,-3.323204 z"
    fill="#40be46" style="stroke-width:0.719978" />
</svg>