<svg viewBox="0 0 48 48" xmlns="http://www.w3.org/2000/svg" xmlns:svg="http://www.w3.org/2000/svg">
  <title>
    jQuery
  </title>
  <path
    d="m 3.0501249,11.272566 c -4.2519744,6.341208 -3.72397763,14.588515 -0.4739972,21.322154 0.074,0.16404 0.156,0.31976 0.2359986,0.475488 0.046,0.10796 0.098,0.207636 0.154,0.311454 0.026,0.05606 0.062,0.11628 0.094,0.17026 0.052,0.10798 0.108,0.211788 0.161998,0.315606 l 0.3139979,0.552312 c 0.06,0.10174 0.114,0.201408 0.18,0.30315 0.112,0.19518 0.2399986,0.388278 0.3559978,0.583456 0.052,0.08306 0.1,0.16196 0.158,0.242936 a 12.735923,13.222269 0 0 0 0.6199962,0.92398 c 0.156,0.22217 0.3119982,0.438112 0.4799971,0.654054 0.054,0.0789 0.116,0.1578 0.172,0.238782 l 0.4399974,0.55854 c 0.056,0.0623 0.11,0.13912 0.168,0.20556 0.195998,0.245012 0.4039976,0.483792 0.6119962,0.726726 l 0.01,0.0124 a 6.2679623,6.5073167 0 0 0 0.8499949,0.913598 c 0.16,0.17234 0.319998,0.3426 0.489997,0.508708 l 0.2019988,0.201408 c 0.2219988,0.218018 0.4459974,0.43396 0.679996,0.641596 0.004,0 0.006,0.0042 0.01,0.0062 l 0.114,0.10382 c 0.2039987,0.1848 0.4099975,0.369592 0.6199963,0.539854 l 0.2499984,0.218018 c 0.1699977,0.1412 0.3479977,0.276156 0.5199967,0.415272 l 0.273998,0.218018 c 0.185998,0.14534 0.383998,0.288616 0.573997,0.429808 0.07,0.0519 0.14,0.10382 0.211999,0.15158 l 0.06,0.04776 0.559997,0.384128 0.239998,0.1661 c 0.295998,0.19518 0.587997,0.38205 0.879995,0.56477 0.082,0.04152 0.168,0.09136 0.245998,0.1412 0.215999,0.12874 0.439998,0.259544 0.657996,0.379974 0.12,0.0706 0.243999,0.1308 0.367998,0.19518 0.15,0.0872 0.305998,0.17234 0.467997,0.259544 a 0.64799611,0.67274109 0 0 1 0.112,0.04776 c 0.066,0.03114 0.128,0.06436 0.191998,0.09758 0.239999,0.12458 0.489997,0.24501 0.749996,0.363362 0.048,0.02076 0.1,0.04152 0.151998,0.0706 0.287998,0.1308 0.577996,0.255392 0.875995,0.377896 0.068,0.02076 0.14,0.05606 0.209998,0.08306 0.269999,0.1059 0.547997,0.213864 0.821995,0.315606 l 0.1,0.03738 c 0.307998,0.10798 0.609997,0.21179 0.919995,0.311456 0.072,0.02076 0.146,0.04776 0.221998,0.06852 0.319999,0.09966 0.627997,0.218018 0.947993,0.28446 C 40.857901,51.300589 46.827865,34.587956 46.827865,34.587956 41.811895,41.369352 32.91195,43.1571 24.48,41.167946 c -0.311998,-0.07476 -0.623996,-0.17856 -0.939994,-0.27408 a 27.077837,28.111857 0 0 1 -1.133994,-0.377898 l -0.124,-0.04984 c -0.272,-0.09552 -0.533998,-0.201408 -0.799996,-0.307302 a 3.2299806,3.3533236 0 0 0 -0.219998,-0.08306 c -0.296,-0.12458 -0.579998,-0.25124 -0.865996,-0.382052 -0.062,-0.02076 -0.114,-0.04984 -0.176,-0.07474 A 46.879718,48.669912 0 0 1 19.496026,39.26607 2.969982,3.0833966 0 0 1 19.284027,39.1581 c -0.188,-0.09136 -0.375998,-0.19726 -0.559997,-0.29692 a 7.8939524,8.1953984 0 0 1 -0.373997,-0.19934 c -0.227999,-0.12458 -0.453997,-0.259544 -0.679996,-0.388278 -0.068,-0.04984 -0.146,-0.09136 -0.223999,-0.13704 a 31.843808,33.059826 0 0 1 -0.877994,-0.56061 4.2139746,4.3748934 0 0 1 -0.235999,-0.161956 12.019928,12.478932 0 0 1 -0.623996,-0.429808 c -0.07,-0.04776 -0.134,-0.09966 -0.205999,-0.15158 a 19.105885,19.83548 0 0 1 -0.589997,-0.440182 c -0.084,-0.0706 -0.174,-0.13704 -0.263998,-0.207636 -0.175998,-0.14534 -0.353998,-0.28031 -0.529997,-0.431884 l -0.235998,-0.19726 a 21.185873,21.994897 0 0 1 -0.669996,-0.581382 0.51599689,0.53570123 0 0 0 -0.074,-0.06436 L 12.444068,34.253734 12.24407,34.058556 C 12.080071,33.884142 11.912072,33.718032 11.744073,33.54777 l -0.196,-0.207636 A 18.161891,18.855438 0 0 1 10.930077,32.66947 l -0.03,-0.03322 c -0.211998,-0.24086 -0.419997,-0.487948 -0.625996,-0.73711 -0.054,-0.0623 -0.106,-0.13288 -0.159998,-0.201408 L 9.6600851,31.12258 A 42.549744,44.174588 0 0 1 8.9800892,30.190294 C 4.3041174,23.564625 2.6121275,14.416177 6.3541049,6.9142835 M 16.240045,5.9321645 C 13.160064,10.522999 13.332063,16.664877 15.732049,21.521485 a 18.22189,18.917729 0 0 0 1.355991,2.352518 c 0.459998,0.6852 0.967995,1.497058 1.585991,2.051446 0.213998,0.253316 0.445997,0.498326 0.687996,0.74749 l 0.179998,0.18688 c 0.227998,0.2284 0.463997,0.45057 0.699995,0.674818 l 0.032,0.027 a 19.733881,20.487457 0 0 0 0.827994,0.710116 c 0.068,0.04776 0.126,0.10382 0.192,0.15158 0.28,0.224248 0.564,0.44019 0.855996,0.65613 l 0.03,0.0186 c 0.124,0.09344 0.255998,0.17856 0.395996,0.269926 0.056,0.03738 0.12,0.0872 0.18,0.12458 0.212,0.1412 0.419998,0.274079 0.635996,0.409043 0.034,0.0146 0.064,0.03322 0.096,0.04776 0.18,0.1142 0.375998,0.224248 0.563996,0.325988 0.066,0.04152 0.13,0.07268 0.2,0.11212 0.132,0.06852 0.263998,0.1412 0.393996,0.21179 l 0.064,0.02906 c 0.269998,0.13912 0.545998,0.26785 0.815996,0.394508 0.068,0.02908 0.126,0.05192 0.184,0.08098 0.222,0.09966 0.447998,0.19518 0.671996,0.28446 0.1,0.0353 0.194,0.07682 0.287998,0.10798 0.204,0.0789 0.419998,0.15158 0.619998,0.224246 l 0.279998,0.09344 c 0.293998,0.09344 0.589996,0.215942 0.897994,0.269928 15.859905,2.726262 19.531883,-9.956153 19.531883,-9.956153 -3.30598,4.94174 -9.703942,7.294258 -16.521901,5.456678 a 16.079903,16.693946 0 0 1 -0.897994,-0.269926 c -0.096,-0.02908 -0.18,-0.06022 -0.271998,-0.08928 -0.207998,-0.07476 -0.421996,-0.14534 -0.623998,-0.226324 l -0.287996,-0.11212 c -0.226,-0.09344 -0.453996,-0.18064 -0.671996,-0.280308 -0.068,-0.03114 -0.13,-0.0519 -0.182,-0.08306 -0.279998,-0.13082 -0.561996,-0.259546 -0.835998,-0.398662 l -0.411994,-0.22217 -0.238,-0.12458 a 11.345932,11.779198 0 0 1 -0.529996,-0.311454 1.2399925,1.2873441 0 0 1 -0.124,-0.07268 c -0.211998,-0.13704 -0.433996,-0.269926 -0.635996,-0.411118 -0.068,-0.03946 -0.13,-0.0872 -0.194,-0.12874 l -0.415998,-0.282386 c -0.287998,-0.207636 -0.569996,-0.431884 -0.855996,-0.649902 -0.064,-0.06022 -0.126,-0.11004 -0.188,-0.16404 C 21.114016,21.311773 18.75003,17.964679 17.628037,14.179472 16.448044,10.240614 16.708043,5.8262701 18.74803,2.2403939 M 27.331978,1.9351688 C 25.51399,4.705035 25.33999,8.1434894 26.591984,11.195741 c 1.329992,3.245352 4.047976,5.793048 7.215956,6.997337 0.129999,0.05191 0.255997,0.09551 0.391997,0.145346 l 0.176,0.05606 c 0.184,0.06229 0.369998,0.13081 0.559998,0.174414 8.761946,1.754525 11.133932,-4.671813 11.771928,-5.614481 -2.085988,3.110389 -5.583968,3.855803 -9.875942,2.771942 A 9.6999417,10.070353 0 0 1 35.799927,15.394143 12.703924,13.189048 0 0 1 34.563935,14.866747 13.059921,13.55864 0 0 1 32.399948,13.496349 C 28.555972,10.47109 26.173986,4.7008822 28.68197,0"
    fill="#0769ad" style="stroke-width:2.03782" />
</svg>