<svg viewBox="0 0 48 48" xmlns="http://www.w3.org/2000/svg" xmlns:svg="http://www.w3.org/2000/svg">
   <title>
      Bootstrap
   </title>
   <path
      d="m 23.54,22.108 h -3.628 v -6.076 h 4.304 c 2.34,0 3.668,1.044 3.668,2.932 0,2.016 -1.546,3.144 -4.348,3.144 z m 0.648,2.412 h -4.274 v 6.696 h 4.462 c 2.918,0 4.464,-1.17 4.464,-3.37 0,-2.2 -1.59,-3.326 -4.652,-3.326 z M 48,22.408 v 2.436 c -2.256,0.216 -3.634,1.888 -4.452,4.536 -0.814,2.638 -0.926,5.874 -0.84,8.372 0.09,2.6 -1.936,5 -4.674,5 H 9.97 c -2.74,0 -4.766,-2.4 -4.674,-5 C 5.382,35.254 5.27,32.018 4.456,29.38 3.636,26.732 2.256,25.06 0,24.844 V 22.408 C 2.256,22.192 3.638,20.52 4.454,17.872 5.27,15.234 5.382,11.998 5.294,9.5 5.204,6.9 7.23,4.5 9.97,4.5 h 28.064 c 2.74,0 4.764,2.4 4.674,5 -0.086,2.498 0.026,5.734 0.84,8.372 0.818,2.648 2.196,4.32 4.452,4.536 z m -15.854,5.634 c 0,-2.708 -1.906,-4.666 -4.736,-4.976 v -0.114 c 2.08,-0.338 3.712,-2.27 3.712,-4.426 0,-3.074 -2.426,-5.076 -6.124,-5.076 h -8.32 v 20.344 h 8.362 c 4.436,0 7.106,-2.172 7.106,-5.752 z"
      fill="#7952b3" id="path4" style="stroke-width:2" />
</svg>