<?xml version="1.0" encoding="UTF-8" standalone="no"?>
<svg viewBox="0 0 48 48" height="48" width="48" version="1.1" id="svg8" sodipodi:docname="drone.svg"
   inkscape:version="1.1.2 (b8e25be833, 2022-02-05)" xmlns:inkscape="http://www.inkscape.org/namespaces/inkscape"
   xmlns:sodipodi="http://sodipodi.sourceforge.net/DTD/sodipodi-0.dtd" xmlns="http://www.w3.org/2000/svg"
   xmlns:svg="http://www.w3.org/2000/svg">
   <defs id="defs12" />
   <sodipodi:namedview id="namedview10" pagecolor="#ffffff" bordercolor="#666666" borderopacity="1.0"
      inkscape:pageshadow="2" inkscape:pageopacity="0.0" inkscape:pagecheckerboard="0" showgrid="false"
      inkscape:zoom="3.725" inkscape:cx="100" inkscape:cy="76.375839" inkscape:window-width="2400"
      inkscape:window-height="1271" inkscape:window-x="-9" inkscape:window-y="-1359" inkscape:window-maximized="1"
      inkscape:current-layer="svg8" />
   <title id="title2">
      Drone
   </title>
   <g id="Landing" stroke="none" stroke-width="1" fill="none" fill-rule="evenodd" transform="scale(0.24)">
      <g transform="translate(-50,-50)" fill="#00abe4" id="g5">
         <path
            d="m 90.288221,69.379747 -0.858638,0.858639 35.046877,35.046874 c -4.95556,7.73718 -7.80979,17.23945 -7.80979,28.04807 0,30.04808 22.05882,50 50,50 10.44083,0 20.0603,-2.7859 28.0144,-7.84346 l 35.22561,35.22561 C 211.655,234.82239 182.65266,250 150,250 94.78022,250 50,206.59341 50,150 50,116.34438 65.836888,87.352376 90.288221,69.379747 Z M 106.95851,59.483042 C 119.99535,53.379886 134.59123,50 150,50 c 55.21978,0 100,43.406593 100,100 0,15.56588 -3.38768,30.13417 -9.44848,43.07605 L 208.85687,161.3814 c 4.95556,-7.73718 7.8098,-17.23944 7.8098,-28.04807 0,-30.04807 -22.05883,-49.999997 -50,-49.999997 -10.44084,0 -20.06031,2.7859 -28.0144,7.843466 z m 59.70816,103.850288 c -16.76471,0 -30,-11.97115 -30,-30 0,-18.02884 13.23529,-30 30,-30 16.7647,0 30,11.97116 30,30 0,18.02885 -13.2353,30 -30,30 z"
            id="drone-logo-vector-dark" />
      </g>
   </g>
</svg>