<svg viewBox="0 0 48 48" xmlns="http://www.w3.org/2000/svg" xmlns:svg="http://www.w3.org/2000/svg">
  <title>
    Git
  </title>
  <path
    d="M 47.092491,21.860478 26.134272,0.90425942 c -1.208012,-1.20601256 -3.164033,-1.20601256 -4.376045,0 l -4.342046,4.35004528 5.520058,5.5200573 c 1.290013,-0.430004 2.758029,-0.140001 3.778039,0.882009 1.032011,1.030011 1.316014,2.516027 0.876009,3.80004 l 5.316056,5.320055 c 1.290013,-0.446004 2.774029,-0.156001 3.800039,0.870009 1.442015,1.440015 1.442015,3.76804 0,5.208055 -1.438015,1.438015 -3.762039,1.438015 -5.200054,0 -1.078011,-1.082012 -1.348014,-2.674028 -0.808008,-3.992042 l -4.978052,-4.952051 v 13.050136 c 0.352004,0.172001 0.684007,0.406004 0.97601,0.696007 1.426015,1.442015 1.426015,3.766039 0,5.200054 -1.438015,1.442015 -3.778039,1.442015 -5.218054,0 -1.438015,-1.438015 -1.438015,-3.758039 0,-5.196054 0.364004,-0.360004 0.774008,-0.632007 1.210012,-0.812009 V 17.670434 C 22.254232,17.488432 21.840228,17.226429 21.488224,16.868426 20.398212,15.778414 20.13621,14.184398 20.696216,12.850384 L 15.272159,7.4003271 0.90000938,21.762477 c -1.20001251,1.210012 -1.20001251,3.168033 0,4.378045 L 21.860228,47.094741 c 1.208012,1.208012 3.164033,1.208012 4.372045,0 L 47.092491,26.234523 c 1.210012,-1.206012 1.210012,-3.164033 0,-4.374045"
    fill="#f05032" style="stroke-width:2.00002" />
</svg>