<svg viewBox="0 0 48 48" xmlns="http://www.w3.org/2000/svg" xmlns:svg="http://www.w3.org/2000/svg">
  <title>
    Handlebars
  </title>
  <path
    d="m 18.199894,10.001982 a 6.900081,6.900081 0 0 0 -0.796009,0.028 C 12.639829,10.405987 10.745807,12.856016 9.6037934,13.906028 8.45978,14.95604 6.2917546,17.432069 4.8517377,16.996064 3.4097207,16.562059 3.003716,14.782038 3.5117219,14.234032 c 0.508006,-0.548007 0.9080107,-0.450006 1.2260144,0 0.1940023,0.360004 0.2900034,0.766009 0.2800033,1.174014 A 2.7200319,2.7200319 0 0 0 5.8937499,14.07803 1.5840186,1.5840186 0 0 0 5.0077395,12.044006 c -2.6000305,-1.318015 -4.27805023,1.028012 -4.52005307,1.574019 -0.24400287,0.546006 -0.67200789,1.414016 -0.4000047,3.390039 0.27000317,1.978024 1.22401437,3.804045 4.20804937,4.522053 a 12.620148,12.620148 0 0 0 8.4760999,-0.990011 l 8.820103,-3.680043 a 10.816127,10.816127 0 0 1 1.112013,-0.202003 v 19.728232 c 0,1.012012 0.632008,1.826021 1.416017,1.826021 0.782009,0 1.414016,-0.814009 1.414016,-1.826021 V 16.686061 a 10.816127,10.816127 0 0 1 0.874011,0.176002 l 8.820103,3.680043 a 12.620148,12.620148 0 0 0 8.4761,0.988011 c 2.984035,-0.720008 3.938046,-2.544029 4.210049,-4.520053 0.270003,-1.978023 -0.160002,-2.846033 -0.400005,-3.392039 -0.244002,-0.546007 -1.924022,-2.892034 -4.522053,-1.574019 a 1.5840186,1.5840186 0 0 0 -0.88601,2.034024 c 0.152002,0.520006 0.458005,0.984011 0.87401,1.330016 a 2.3800279,2.3800279 0 0 1 0.282004,-1.174014 c 0.318003,-0.450006 0.718008,-0.548007 1.226014,0 0.508006,0.548006 0.102001,2.328027 -1.340016,2.764032 -1.440017,0.434005 -3.608042,-2.040024 -4.752056,-3.092036 -1.142013,-1.050012 -3.036035,-3.500041 -7.800091,-3.876046 a 6.900081,6.900081 0 0 0 -6.596078,3.38204 6.900081,6.900081 0 0 0 -5.800068,-3.41004 z m 24.780291,5.406064 v 0.008 l 0.012,0.004 c -0.004,-0.004 -0.008,-0.008 -0.012,-0.008 z m -37.9604454,0 c -0.004,0.004 -0.008,0.008 -0.012,0.008 l 0.012,-0.002 v -0.008 z"
    fill="#000000" style="stroke-width:2.00002" />
</svg>