<svg viewBox="0 0 48 48" xmlns="http://www.w3.org/2000/svg" xmlns:svg="http://www.w3.org/2000/svg">
  <title>
    Heroku
  </title>
  <path
    d="M 41.26,0 H 6.82 C 4.418,0 2.5,1.92 2.5,4.32 V 43.682 C 2.5,46.078 4.418,48 6.82,48 h 34.44 c 2.4,0 4.318,-1.922 4.318,-4.318 V 4.32 C 45.58,1.92 43.662,0 41.26,0 Z m 1.92,43.682 c 0,1.078 -0.842,1.92 -1.92,1.92 H 6.82 C 5.74,45.602 4.9,44.76 4.9,43.682 V 4.32 C 4.9,3.24 5.74,2.398 6.82,2.398 h 34.44 c 1.078,0 1.92,0.842 1.92,1.922 z M 13.3,40.798 18.7,36 13.3,31.2 Z M 32.74,21.36 C 31.782,20.4 29.982,19.2 26.982,19.2 c -3.242,0 -6.602,0.842 -9,1.68 V 7.2 h -4.8 v 20.76 l 3.36,-1.56 c 0,0 5.52,-2.52 10.32,-2.52 2.4,0 3,1.32 3,2.52 v 14.4 h 4.8 V 26.4 C 34.78,26.042 34.78,23.398 32.74,21.36 Z M 26.38,15 h 4.8 c 2.16,-2.52 3.24,-5.042 3.6,-7.8 H 29.982 C 29.5,9.958 28.3,12.48 26.38,15 Z"
    fill="#430098" style="stroke-width:2" />
</svg>