<svg viewBox="0 0 48 48" xmlns="http://www.w3.org/2000/svg" xmlns:svg="http://www.w3.org/2000/svg">
  <title>
    Jest
  </title>
  <path
    d="m 44.28313,23.615871 c 0,-2.585053 -2.095576,-4.680629 -4.680628,-4.680629 -0.166302,0 -0.330288,0.0089 -0.49197,0.02579 L 45.539371,0 H 18.218982 l 6.419769,18.944668 a 4.7021508,4.7021508 0 0 0 -0.28458,-0.0094 c -2.584875,0 -4.680452,2.095576 -4.680452,4.680629 0,2.089529 1.369364,3.858549 3.259509,4.460435 -0.998343,1.72918 -2.254408,3.286543 -3.680509,4.631895 -1.939235,1.829495 -4.158603,3.216644 -6.558857,4.071451 -2.857895,-1.468075 -4.2075152,-4.733275 -2.9898688,-7.595972 0.1376656,-0.323175 0.2779986,-0.650977 0.4122858,-0.977176 2.070318,-0.483252 3.613097,-2.339426 3.613097,-4.557015 0,-2.585054 -2.095574,-4.68063 -4.6806278,-4.68063 -2.5852315,0 -4.6808074,2.095576 -4.6808074,4.68063 0,1.585289 0.7888196,2.985244 1.9943721,3.832048 -1.1585964,2.637878 -2.8614523,5.398304 -3.392016,8.597694 -0.6358585,3.834538 -0.00199,7.904743 3.3142898,10.203261 7.7235003,5.352949 16.1072273,-3.318381 24.9468153,-5.498263 3.203303,-0.790066 6.72,-0.662716 9.542326,-2.297451 2.119765,-1.227607 3.51705,-3.261998 3.913685,-5.546108 0.391648,-2.256364 -0.179638,-4.502945 -1.492798,-6.324612 a 4.6612424,4.6612424 0 0 0 1.088515,-3.000185 z m -15.248508,0.01654 5.33e-4,-0.01654 c 0,-1.697519 -0.903897,-3.184095 -2.256362,-4.004574 L 31.888426,9.2790862 37.006953,19.72086 c -1.256954,0.839155 -2.08526,2.270238 -2.08526,3.895011 0,0.03415 0.0018,0.06776 0.0026,0.101736 z"
    fill="#c63d14" style="stroke-width:0.177862" />
</svg>