<svg viewBox="0 0 48 48" xmlns="http://www.w3.org/2000/svg" xmlns:svg="http://www.w3.org/2000/svg">
  <title>
    LinkedIn
  </title>
  <path
    d="M 40.894,40.904 H 33.786 V 29.766 c 0,-2.656 -0.054,-6.074 -3.704,-6.074 -3.706,0 -4.272,2.89 -4.272,5.878 V 40.904 H 18.702 V 18 h 6.828 v 3.122 h 0.092 c 0.954,-1.8 3.274,-3.7 6.74,-3.7 7.202,0 8.534,4.74 8.534,10.91 V 40.904 Z M 10.674,14.866 c -2.288,0 -4.126,-1.852 -4.126,-4.13 0,-2.276 1.84,-4.126 4.126,-4.126 2.28,0 4.128,1.85 4.128,4.126 0,2.278 -1.85,4.13 -4.128,4.13 z m 3.564,26.038 H 7.11 V 18 h 7.128 z M 44.45,0 H 3.542 C 1.584,0 0,1.548 0,3.458 V 44.542 C 0,46.454 1.584,48 3.542,48 H 44.444 C 46.4,48 48,46.454 48,44.542 V 3.458 C 48,1.548 46.4,0 44.444,0 Z"
    fill="#0a66c2" style="stroke-width:2" />
</svg>