<svg role="img" viewBox="0 0 48 48" height="48" width="48" xmlns="http://www.w3.org/2000/svg"
  xmlns:xlink="http://www.w3.org/1999/xlink">
  <title>
    Materialize
  </title>
  <path
    d="m2.4865 17.681c-0.1999-0.1191-0.56536-1.0279-0.81214-2.0197-0.24678-0.99172-0.74045-2.1731-1.097-2.6253l-0.64836-0.82214 4.2683 0.22611 0.18096-0.9935c0.85743-4.7073 1.2644-5.3529 3.375-5.3529 2.3407 0 2.6399 0.28125 3.4078 3.2029l0.65696 2.4997 0.52167-2.2734c0.77531-3.3787 0.82113-3.4292 3.114-3.4292 2.3467 0 2.5586 0.22615 3.2945 3.5156 0.73141 3.2696 0.75861 3.3406 1.1417 2.9814 0.18161-0.17026 1.1367-0.30956 2.1225-0.30956h1.7923l-0.66036 0.65899c-0.40327 0.40243-0.76701 1.2733-0.93431 2.237-0.42062 2.4229-0.68471 2.7297-2.3455 2.7252-2.7263-0.0074-3.1452-0.52216-3.8451-4.7246-0.25637-1.5394-0.5413-1.2361-1.0075 1.0722-0.68608 3.3973-0.89679 3.6562-2.9751 3.6562-2.2781 0-2.5669-0.27385-3.1894-3.0246-0.72433-3.2004-0.77107-3.2271-1.3569-0.77227-0.91063 3.8159-0.89654 3.7976-2.908 3.7926-0.95283-0.002368-1.896-0.10175-2.0959-0.22084z"
    fill="#f8bac2" />
  <path
    d="m3.1285 16.992c0.10915-0.34805 0.6538-2.615 1.2103-5.0378 1.3085-5.6965 1.236-5.5794 3.4564-5.5794h1.7741l-0.39928 0.91406c-0.2196 0.50273-0.83425 2.8125-1.3659 5.1328-1.2317 5.3756-1.1256 5.2031-3.1998 5.2031-1.5953 0-1.665-0.02992-1.476-0.63281zm7.518 0.14062c0.1159-0.2707 0.66721-2.5517 1.2252-5.0688 1.298-5.856 1.1968-5.689 3.4494-5.689 1.6164 0 1.7727 0.050216 1.5321 0.49219-0.27853 0.51167-1.2601 4.3184-1.8674 7.2422-0.67118 3.2314-0.90183 3.5156-2.8526 3.5156-1.4968 0-1.6725-0.05815-1.4867-0.49219zm7.7852-0.42188c0.22062-0.50273 0.49801-1.4653 0.61642-2.1391 0.31489-1.7917 0.99009-2.2924 3.0768-2.2816 1.4176 0.0074 1.6402 0.07 1.249 0.35156-0.70834 0.50986-1.0725 1.3065-1.3137 2.8739-0.29006 1.8848-0.54901 2.1094-2.4317 2.1094h-1.598z"
    fill="#ec6f77" />
</svg>