<svg role="img" viewBox="0 0 48 48" height="48" width="48" xmlns="http://www.w3.org/2000/svg"
  xmlns:xlink="http://www.w3.org/1999/xlink">
  <title>
    Mongoose
  </title>
  <path
    d="m22.953 19.334h-2.5703v-8.6953q0-0.98438-0.0957-1.9004-0.082034-0.91602-0.36914-1.4629-0.31445-0.58789-0.90234-0.88867-0.58789-0.30078-1.6953-0.30078-1.0801 0-2.1602 0.54688-1.0801 0.5332-2.1602 1.3672 0.04101 0.31445 0.06836 0.73828 0.02734 0.41016 0.02734 0.82031v9.7754h-2.5703v-8.6953q0-1.0117-0.0957-1.9141-0.08203-0.91602-0.36914-1.4629-0.31445-0.58789-0.90234-0.875-0.58789-0.30078-1.6953-0.30078-1.0527 0-2.1191 0.51953-1.0527 0.51953-2.1055 1.3262v11.402h-2.5703v-15.271h2.5703v1.6953q1.2031-0.99805 2.3926-1.5586 1.2031-0.56055 2.5566-0.56055 1.5586 0 2.6387 0.65625 1.0938 0.65625 1.627 1.8184 1.5586-1.3125 2.8438-1.8867 1.2852-0.58789 2.748-0.58789 2.5156 0 3.7051 1.5312 1.2031 1.5176 1.2031 4.252z"
    fill="#800" />
</svg>