<svg viewBox="0 0 48 48" xmlns="http://www.w3.org/2000/svg" xmlns:svg="http://www.w3.org/2000/svg">
  <title>
    MySQL
  </title>
  <path
    d="m 32.81,10.999877 c -0.23,0 -0.386,0.028 -0.548,0.066 v 0.026 h 0.028 c 0.108,0.208001 0.292,0.360002 0.428,0.546003 0.108,0.214001 0.2,0.428001 0.308,0.640002 l 0.028,-0.03 c 0.188,-0.132 0.28,-0.344001 0.28,-0.666003 -0.08,-0.094 -0.092,-0.188 -0.16,-0.280001 -0.08,-0.134 -0.252,-0.200001 -0.36,-0.306001 z M 11.54,37.387988 H 9.686 A 101.708,101.70842 0 0 0 9.146,28.567951 H 9.13 L 6.31,37.387988 H 4.9 L 2.1,28.567951 H 2.08 A 145.784,145.78461 0 0 0 1.69,37.387988 H 0 C 0.11,33.455971 0.384,29.767956 0.82,26.327941 h 2.3 l 2.67,8.128035 H 5.806 L 8.5,26.327941 h 2.19 c 0.484,4.030018 0.768,7.720033 0.856,11.060047 z m 8.034,-8.160034 c -0.756,4.090017 -1.752,7.066029 -2.984,8.920037 -0.964,1.432006 -2.02,2.146009 -3.166,2.146009 -0.306,0 -0.68,-0.092 -1.132,-0.276001 v -0.988004 c 0.22,0.034 0.48,0.052 0.772,0.052 0.536,0 0.966,-0.150001 1.294,-0.444002 0.394,-0.360001 0.59,-0.764003 0.59,-1.210005 0,-0.310001 -0.154,-0.940004 -0.46,-1.888008 L 12.46,29.227954 h 1.82 l 1.454,4.72002 c 0.328,1.072004 0.466,1.820007 0.41,2.246009 0.8,-2.128009 1.356,-4.454019 1.67,-6.966029 z m 24.65,8.160034 h -5.26 V 26.327941 h 1.77 v 9.700041 h 3.49 z m -6.64,0.270001 -2.032,-1.000004 c 0.18,-0.152001 0.354,-0.316001 0.51,-0.500002 0.866,-1.012004 1.296,-2.516011 1.296,-4.506019 0,-3.660015 -1.436,-5.492024 -4.31,-5.492024 -1.408,0 -2.508,0.464002 -3.3,1.394006 -0.86,1.016005 -1.292,2.512011 -1.292,4.49002 0,1.944008 0.38,3.372014 1.148,4.280017 0.7,0.820004 1.754,1.230006 3.166,1.230006 0.528,0 1.012,-0.066 1.45,-0.196001 l 2.65,1.544006 0.72,-1.244005 z M 31,35.173979 c -0.45,-0.720003 -0.674,-1.880008 -0.674,-3.472015 0,-2.786011 0.848,-4.180018 2.54,-4.180018 0.886,0 1.54,0.334002 1.954,1.000005 0.448,0.724003 0.672,1.872008 0.672,3.446014 0,2.808012 -0.848,4.216018 -2.54,4.216018 -0.89,0 -1.54,-0.334002 -1.956,-1.000004 z m -3.316,-0.850004 c 0,0.940004 -0.344,1.712007 -1.032,2.31201 -0.688,0.600002 -1.606,0.900003 -2.768,0.900003 -1.086,0 -2.128,-0.344001 -3.146,-1.030004 l 0.474,-0.952004 c 0.876,0.440002 1.666,0.656003 2.38,0.656003 0.664,0 1.186,-0.146001 1.566,-0.440002 a 1.508,1.5080063 0 0 0 0.6,-1.230005 c 0,-0.660003 -0.46,-1.220005 -1.296,-1.690007 -0.776,-0.426002 -2.326,-1.314006 -2.326,-1.314006 -0.844,-0.614002 -1.264,-1.272005 -1.264,-2.354009 0,-0.900004 0.314,-1.620008 0.94,-2.17001 0.63,-0.556003 1.44,-0.830004 2.44,-0.830004 1.024,0 1.96,0.272001 2.8,0.820004 l -0.426,0.952005 a 5.452,5.4520227 0 0 0 -2.128,-0.460003 c -0.566,0 -1.004,0.136 -1.308,0.412002 a 1.37,1.3700057 0 0 0 -0.496,1.048005 c 0,0.656002 0.468,1.220005 1.332,1.700007 0.786,0.430002 2.374,1.340005 2.374,1.340005 0.866,0.610003 1.296,1.260006 1.296,2.33601 z m 18.764,-11.70405 c -1.07,-0.028 -1.9,0.08 -2.594,0.376002 -0.2,0.08 -0.52,0.08 -0.548,0.334001 0.11,0.106001 0.126,0.280001 0.22,0.428002 0.16,0.268001 0.436,0.626003 0.692,0.814003 0.28,0.220001 0.56,0.432002 0.854,0.620003 0.52,0.320001 1.11,0.510002 1.62,0.832003 0.29,0.188001 0.586,0.426002 0.88,0.626003 0.146,0.1 0.24,0.280001 0.428,0.344002 v -0.04 c -0.092,-0.12 -0.12,-0.294001 -0.21,-0.428001 -0.134,-0.134001 -0.268,-0.254002 -0.4,-0.386002 A 6.446,6.4460269 0 0 0 46,24.789934 c -0.428,-0.292001 -1.364,-0.700003 -1.54,-1.190005 l -0.026,-0.028 c 0.292,-0.026 0.64,-0.132 0.92,-0.212001 0.454,-0.12 0.87,-0.094 1.34,-0.212001 0.212,-0.054 0.426,-0.12 0.64,-0.188 v -0.120001 c -0.24,-0.240001 -0.42,-0.566002 -0.668,-0.790003 a 17.734,17.734074 0 0 0 -2.208,-1.646007 c -0.42,-0.268001 -0.952,-0.440002 -1.394,-0.668003 -0.16,-0.08 -0.428,-0.12 -0.52,-0.254001 -0.24,-0.292001 -0.38,-0.680003 -0.55,-1.028004 A 35.38,35.380148 0 0 1 40.9,16.127898 C 40.66,15.603896 40.514,15.081894 40.22,14.601892 38.84,12.327883 37.346,10.949877 35.048,9.6018712 34.554,9.3218701 33.962,9.2018696 33.336,9.053869 c -0.334,-0.016 -0.668,-0.04 -1,-0.054 -0.22,-0.094 -0.432,-0.3480014 -0.62,-0.470002 -0.76,-0.480002 -2.728,-1.5200063 -3.288,-0.1440006 -0.36,0.8680037 0.534,1.7240066 0.844,2.1640086 0.23,0.306001 0.52,0.656003 0.68,1.000004 0.094,0.232001 0.12,0.470002 0.214,0.712003 0.212,0.588003 0.414,1.244005 0.694,1.794008 0.146,0.280001 0.306,0.574002 0.494,0.826003 0.108,0.146001 0.292,0.214001 0.334,0.454002 -0.188,0.272001 -0.2,0.668003 -0.308,1.000004 -0.48,1.514006 -0.292,3.386014 0.388,4.500019 0.214,0.332001 0.724,1.068004 1.406,0.786003 0.6,-0.240001 0.468,-1.000004 0.64,-1.670007 0.04,-0.160001 0.014,-0.266001 0.096,-0.374001 v 0.03 c 0.188,0.376001 0.376,0.734003 0.548,1.110004 0.412,0.656003 1.132,1.336006 1.734,1.790008 0.32,0.240001 0.574,0.656003 0.974,0.804003 v -0.04 h -0.03 c -0.086,-0.116001 -0.2,-0.172001 -0.308,-0.266001 a 6.89,6.8900287 0 0 1 -0.7,-0.800003 17.52,17.520073 0 0 1 -1.494,-2.436011 c -0.22,-0.420001 -0.404,-0.872003 -0.58,-1.286005 -0.08,-0.160001 -0.08,-0.400002 -0.214,-0.480002 -0.2,0.292001 -0.494,0.546002 -0.64,0.906004 -0.254,0.576002 -0.28,1.284005 -0.376,2.020008 -0.054,0.014 -0.028,0 -0.054,0.028 -0.428,-0.104 -0.574,-0.548002 -0.734,-0.920004 -0.4,-0.950003 -0.466,-2.47601 -0.12,-3.570014 0.094,-0.280001 0.494,-1.164005 0.334,-1.432006 -0.084,-0.254001 -0.348,-0.400002 -0.494,-0.606003 a 4.956,4.9560207 0 0 1 -0.48,-0.854003 c -0.32,-0.748003 -0.48,-1.576007 -0.828,-2.32401 -0.16,-0.346001 -0.44,-0.708003 -0.668,-1.026004 C 29.526,9.8658722 29.246,9.6118713 29.044,9.1858695 28.978,9.0398689 28.884,8.7978679 28.99,8.6378672 c 0.028,-0.1080005 0.084,-0.1500006 0.188,-0.1800008 0.176,-0.1440006 0.67,0.044 0.844,0.1240006 0.494,0.2000008 0.91,0.3880016 1.324,0.6680028 0.188,0.1320005 0.39,0.3860016 0.63,0.4520018 h 0.28 c 0.428,0.094 0.91,0.028 1.31,0.1460006 0.71,0.2280008 1.35,0.5600028 1.924,0.9200038 a 11.906,11.90605 0 0 1 4.17,4.572019 c 0.16,0.308001 0.23,0.590003 0.376,0.910004 0.28,0.660003 0.626,1.326005 0.91,1.964008 0.28,0.630003 0.55,1.272005 0.952,1.794007 0.2,0.280002 1.004,0.426002 1.364,0.572003 0.266,0.12 0.68,0.230001 0.92,0.376001 0.46,0.280001 0.908,0.600003 1.34,0.908004 0.22,0.152001 0.886,0.486002 0.926,0.756003 z"
    fill="#4479a1" style="stroke-width:2" />
</svg>