<svg viewBox="0 0 48 48" xmlns="http://www.w3.org/2000/svg" xmlns:svg="http://www.w3.org/2000/svg">
  <title>
    Next.js
  </title>
  <path
    d="M 23.144993,0 C 22.79239,0 22.525388,0.00260002 22.428187,0.01340011 22.324986,0.0240002 21.996383,0.05540046 21.700981,0.07900066 14.883324,0.69360578 8.4974708,4.3716364 4.4528371,10.024684 2.2006183,13.16811 0.76020633,16.733339 0.2162018,20.510171 0.0238002,21.828182 2e-4,22.217585 2e-4,24.005 c 0,1.787415 0.0240002,2.176818 0.2160018,3.495229 1.3040109,9.012075 7.7182643,16.583938 16.4175372,19.389162 1.557813,0.502204 3.200026,0.844607 5.067442,1.051009 0.727206,0.08 3.870832,0.08 4.598038,0 3.223427,-0.356603 5.95445,-1.15401 8.647472,-2.528622 0.413004,-0.211201 0.492804,-0.267402 0.436604,-0.314602 -0.0376,-0.0278 -1.797415,-2.38762 -3.908633,-5.240044 L 27.63663,34.673089 22.82719,27.55643 c -2.646222,-3.912833 -4.82344,-7.11206 -4.84224,-7.11206 -0.0188,-0.0052 -0.0374,3.157427 -0.047,7.018059 -0.0134,6.760456 -0.0186,7.032458 -0.1032,7.19206 -0.122001,0.230002 -0.216002,0.323602 -0.412804,0.426803 -0.150001,0.0748 -0.281602,0.089 -0.990008,0.089 H 15.61993 l -0.215602,-0.136001 a 0.87660731,0.87660731 0 0 1 -0.314402,-0.342403 l -0.0986,-0.211202 0.0106,-9.406078 0.0134,-9.410878 0.145201,-0.183002 c 0.0752,-0.0986 0.234802,-0.225002 0.347203,-0.286002 0.192402,-0.094 0.267602,-0.103401 1.079209,-0.103401 0.957408,0 1.11681,0.0374 1.365412,0.309402 0.0706,0.0754 2.674622,3.997434 5.790048,8.721673 a 21521.045,21521.045 0 0 0 9.468879,14.34132 l 3.800431,5.756448 0.192002,-0.126602 c 1.703614,-1.107209 3.505029,-2.683622 4.931441,-4.325436 3.035825,-3.485829 4.992642,-7.736064 5.649447,-12.268102 C 47.9768,26.181818 48.0002,25.792015 48.0002,24.005 c 0,-1.787415 -0.024,-2.176818 -0.215602,-3.495229 C 46.480187,11.497696 40.066134,3.9258327 31.367061,1.1206093 29.832649,0.62320519 28.199835,0.28060234 26.37002,0.07420062 26.032017,0.03900033 24.203002,0.00100001 23.145393,2.0000167e-4 Z m 8.137068,14.43412 c 0.694605,0 0.816406,0.0106 0.971408,0.094 0.225402,0.112401 0.408003,0.328403 0.474004,0.553405 0.0372,0.122001 0.0468,2.730622 0.0372,8.608871 l -0.0134,8.435071 -1.487212,-2.280019 -1.492213,-2.280019 v -6.132051 c 0,-3.964033 0.0186,-6.192652 0.0468,-6.300453 0.075,-0.262602 0.239202,-0.469204 0.464604,-0.591005 0.192202,-0.0988 0.262603,-0.108001 0.999409,-0.108001 z"
    fill="#000000" style="stroke-width:2.00002" />
</svg>