<svg viewBox="0 0 48 48" xmlns="http://www.w3.org/2000/svg" xmlns:svg="http://www.w3.org/2000/svg">
  <title>
    Node.js
  </title>
  <path
    d="m 24.029778,47.99975 c -0.641993,0 -1.281986,-0.167998 -1.84398,-0.493995 l -5.871939,-3.473964 c -0.875991,-0.489995 -0.447996,-0.663993 -0.159999,-0.765992 1.169988,-0.405995 1.405986,-0.499994 2.655973,-1.207987 0.129998,-0.074 0.301997,-0.046 0.435995,0.034 l 4.511953,2.677972 c 0.163998,0.09 0.393996,0.09 0.543995,0 L 41.891592,34.617889 c 0.163999,-0.094 0.267997,-0.281997 0.267997,-0.475995 V 13.842106 c 0,-0.197998 -0.105998,-0.383996 -0.273997,-0.483995 L 24.303775,3.2142165 c -0.161998,-0.093999 -0.377996,-0.093999 -0.541994,0 L 6.1839642,13.360111 c -0.1699982,0.098 -0.2779971,0.289997 -0.2779971,0.481995 v 20.299788 c 0,0.193998 0.1079989,0.377996 0.2779971,0.469995 l 4.8179498,2.783971 c 2.613973,1.307987 4.215956,-0.231997 4.215956,-1.779981 V 15.574088 c 0,-0.283997 0.227998,-0.505995 0.511995,-0.505995 h 2.229977 c 0.277997,0 0.509994,0.223998 0.509994,0.505995 v 20.041791 c 0,3.489964 -1.89998,5.489943 -5.207945,5.489943 -1.01599,0 -1.817982,0 -4.0519583,-1.101989 L 4.5939808,37.349861 C 3.4539927,36.691868 2.75,35.459881 2.75,34.141894 V 13.842106 c 0,-1.317986 0.7059926,-2.549974 1.8439808,-3.205967 L 22.183798,0.47224508 c 1.113988,-0.62999344 2.591973,-0.62999344 3.695961,0 L 43.467576,10.636139 c 1.139988,0.657993 1.847981,1.887981 1.847981,3.205967 v 20.299788 c 0,1.317987 -0.707993,2.545974 -1.847981,3.207967 L 25.879759,47.505755 c -0.559994,0.325997 -1.197987,0.493995 -1.849981,0.493995 z M 38.23163,27.985958 c 0,-3.79996 -2.567973,-4.811949 -7.973917,-5.525942 -5.461943,-0.721992 -6.017937,-1.095989 -6.017937,-2.373975 0,-1.055989 0.469995,-2.465975 4.515953,-2.465975 3.613962,0 4.945949,0.777992 5.493943,3.213967 0.048,0.229998 0.257997,0.397996 0.493995,0.397996 h 2.281976 c 0.141998,0 0.275997,-0.062 0.371996,-0.161998 0.096,-0.107999 0.147999,-0.245998 0.133999,-0.391996 -0.353997,-4.195957 -3.141968,-6.151936 -8.775909,-6.151936 -5.015948,0 -8.007916,2.115978 -8.007916,5.665941 0,3.84996 2.975969,4.913948 7.789918,5.389944 5.75994,0.563994 6.205936,1.405985 6.205936,2.537973 0,1.96598 -1.577984,2.803971 -5.283945,2.803971 -4.653952,0 -5.677941,-1.167988 -6.021937,-3.483964 -0.04,-0.247997 -0.251998,-0.429995 -0.505995,-0.429995 h -2.273977 c -0.281997,0 -0.507994,0.223997 -0.507994,0.505994 0,2.963969 1.611983,6.495933 9.309903,6.495933 5.575942,0.002 8.771908,-2.191977 8.771908,-6.025938 z"
    fill="#339933" style="stroke-width:1.99998" />
</svg>