<svg viewBox="0 0 48 48" xmlns="http://www.w3.org/2000/svg" xmlns:svg="http://www.w3.org/2000/svg">
  <title>
    PostgreSQL
  </title>
  <path
    d="m 47.947861,29.4456 a 1.0915878,1.0537999 0 0 0 -0.11664,-0.2382 c -0.28797,-0.5264 -0.987796,-0.6836 -2.087048,-0.4642 -3.42517,0.6822 -4.751483,0.2624 -5.232329,-0.0382 2.780245,-4.0964 5.065349,-9.044 6.300299,-13.659399 0.562264,-2.1014 1.653644,-7.0474001 0.253164,-9.4631999 a 3.2403728,3.1281998 0 0 0 -0.31262,-0.47 C 44.081415,1.8172013 40.160898,0.0496014 35.415008,0.0010014 32.318412,-0.03059859 29.675314,0.69320136 28.959328,0.95980135 A 19.575656,18.897999 0 0 0 27.89053,0.79660136 16.664893,16.087999 0 0 0 25.173681,0.54100137 c -2.449184,-0.0368 -4.565652,0.52839993 -6.318325,1.68119993 -1.776083,-0.6422 -9.9210393,-3.2899998 -14.9617344,0.1576 C 1.0783652,4.3052011 -0.22122305,7.7466009 0.03069778,12.608601 0.11543101,14.244601 1.0808512,19.2766 2.604392,24.0958 c 0.9525756,3.013 1.9447209,5.4038 2.9695995,7.164 1.1456595,1.988399 2.3325464,3.186599 3.5515448,3.578999 0.9268867,0.2982 2.3466337,0.2882 3.8494577,-1.4558 1.65986,-1.926999 3.294652,-3.651599 4.028661,-4.413799 0.901405,0.471 1.877805,0.725 2.879687,0.7544 a 0.11788071,0.11379999 0 0 0 8.29e-4,0.0082 22.853527,22.062399 0 0 0 -0.512129,0.6108 c -0.702105,0.8604 -0.848161,1.0394 -3.10799,1.4886 -0.642646,0.128 -2.350156,0.467799 -2.375016,1.622999 -0.0052,0.2448 0.06816,0.4618 0.19039,0.6536 0.470072,0.8462 1.909294,1.2194 2.102793,1.2662 2.764706,0.667 5.18841,0.184 6.98459,-1.3574 -0.03522,4.462 0.16056,8.8348 0.71557,10.1748 0.458264,1.1058 1.578233,3.809 5.115483,3.8086 0.518966,0 1.090346,-0.0582 1.718698,-0.1882 3.691592,-0.7642 5.294688,-2.3392 5.914752,-5.8118 0.31138,-1.7414 0.832002,-5.7506 1.116242,-8.2024 0.03502,-0.1406 0.07396,-0.2414 0.11808,-0.2724 0.0014,-10e-4 0.1444,-0.0942 0.885038,0.0614 a 0.76094173,0.73459996 0 0 0 0.09178,0.0136 l 0.52601,0.0446 0.03086,0.002 c 1.75433,0.0768 3.959879,-0.2852 5.243931,-0.8616 1.33377,-0.5976 3.7409,-2.064599 3.304596,-3.339599 z M 4.0514864,23.753 C 2.5111646,18.8814 1.6112108,13.982801 1.5399438,12.609201 1.3149553,8.2664009 2.4040569,5.2434011 4.7765875,3.6238012 c 3.805123,-2.5971999 10.0266975,-1.0815999 12.6540485,-0.26 -0.0066,0.0064 -0.01367,0.0122 -0.0203,0.0188 -4.192741,4.0879998 -4.093298,11.0719998 -4.08294,11.4989998 -4.14e-4,0.1646 0.01368,0.397799 0.03356,0.718599 0.0721,1.1746 0.206343,3.3608 -0.152272,5.8368 -0.333339,2.3008 0.401292,4.5528 2.015367,6.1784 0.16698,0.1682 0.341419,0.3262 0.521658,0.4748 -0.718471,0.7428 -2.279717,2.3852 -3.941441,4.315199 -1.176114,1.365 -1.9882274,1.1034 -2.2552718,1.0174 C 8.7370893,33.161399 7.8646891,32.248599 6.9840022,30.7782 5.9904066,29.1002 4.9879027,26.7148 4.0514864,23.753 Z M 16.496706,33.927199 c -0.354471,-0.0856 -0.677659,-0.2264 -0.895396,-0.3544 0.184176,-0.0788 0.491826,-0.1804 1.001261,-0.2818 2.658634,-0.5282 3.069249,-0.9012 3.965888,-2.000399 0.205516,-0.252 0.438376,-0.5374 0.760944,-0.8852 a 0.73525244,0.70979996 0 0 0 0.15268,-0.2596 c 0.35385,-0.3026 0.564336,-0.2198 0.905134,-0.0834 0.323188,0.1292 0.637674,0.52 0.7655,0.9504 0.06028,0.2032 0.12824,0.589 -0.09364,0.8888 -1.873454,2.531599 -4.602528,2.498799 -6.562373,2.025599 z m 4.338177,-7.975999 -0.10876,0.282 c -0.27554,0.7132 -0.531812,1.3762 -0.690712,2.006 -1.382669,-0.0042 -2.728042,-0.5744 -3.750849,-1.6048 -1.300831,-1.3102 -1.891685,-3.1328 -1.621118,-5.0008 0.37871,-2.6158 0.238869,-4.8936 0.163665,-6.1172 -0.01036,-0.1714 -0.01968,-0.321399 -0.02528,-0.439799 0.612607,-0.5242 3.451274,-1.9924 5.475341,-1.5448 0.92378,0.2044 1.486666,0.8114 1.720564,1.855999 1.211126,5.4076 0.16036,7.6614 -0.684082,9.4726 -0.17402,0.3732 -0.338312,0.7258 -0.478774,1.0908 z m 15.255505,9.144999 c -0.03502,0.3536 -0.07416,0.752 -0.12804,1.1918 l -0.302472,0.8766 a 0.7348381,0.70939996 0 0 0 -0.0377,0.2154 c -0.0122,0.9494 -0.11188,1.2978 -0.238248,1.7386 -0.13134,0.4584 -0.280304,0.9782 -0.371666,2.115 -0.22789,2.8286 -1.819382,4.4534 -5.007756,5.113 -3.139688,0.6502 -3.696564,-0.9936 -4.187354,-2.4434 a 13.636871,13.164799 0 0 0 -0.15932,-0.4532 c -0.446247,-1.1716 -0.395904,-2.8238 -0.326088,-5.1102 0.03418,-1.1224 -0.05158,-3.8026 -0.684081,-5.2924 0.0092,-0.5864 0.02196,-1.181799 0.03936,-1.783599 a 0.731109,0.70579996 0 0 0 -0.0317,-0.2252 3.0924522,2.9853998 0 0 0 -0.09094,-0.416 c -0.253992,-0.8566 -0.872814,-1.5732 -1.615318,-1.8702 -0.295012,-0.118 -0.83656,-0.3344 -1.487078,-0.1738 0.1388,-0.552 0.37933,-1.175 0.64016,-1.8498 l 0.1096,-0.284 c 0.12326,-0.32 0.27761,-0.6514 0.441276,-1.0024 0.883586,-1.8952 2.093676,-4.4906 0.780208,-10.354399 -0.491826,-2.1962 -2.134698,-3.2686 -4.624903,-3.0196 -1.493086,0.1492 -2.858762,0.7308 -3.54015,1.0642 a 11.749951,11.343199 0 0 0 -0.405642,0.2082 c 0.190183,-2.2128 0.908655,-6.3482 3.595879,-8.9645999 a 8.3502635,8.0611995 0 0 1 0.628352,-0.5519999 0.73173052,0.70639996 0 0 0 0.299777,-0.1288 c 1.558761,-1.1411999 3.510527,-1.7011999 5.804953,-1.6649999 0.847539,0.0134 1.660895,0.0678 2.432611,0.162 4.01706,0.7087999 6.720442,2.8935998 8.361244,4.7653997 1.686998,1.9245999 2.600418,3.863 2.96504,4.9086 -2.741296,-0.2692 -4.606256,0.2536 -5.55158,1.558 -2.056386,2.837799 1.124942,8.345799 2.654078,10.992799 0.280302,0.4852 0.522486,0.9044 0.598518,1.0826 0.497834,1.165 1.142552,1.9426 1.613246,2.5104 0.1442,0.174 0.28424,0.3428 0.39052,0.49 -0.830346,0.231 -2.321982,0.765 -2.186076,3.434 -0.02548,0.312599 -0.08764,0.893799 -0.17278,1.629599 -0.0955,0.4154 -0.14544,0.9206 -0.20593,1.5324 z M 37.935252,31.854 c -0.0839,-1.6632 0.557498,-1.837 1.236194,-2.021 a 5.9180674,5.7131997 0 0 0 0.279682,-0.0812 2.4902041,2.4039999 0 0 0 0.278024,0.206 c 1.1815,0.753 3.278077,0.8426 6.229239,0.2688 -0.417658,0.3538 -1.075014,0.7988 -1.974968,1.2022 -0.84899,0.3806 -2.269981,0.665999 -3.619911,0.727199 -1.491016,0.0672 -2.249678,-0.161399 -2.42826,-0.301999 z m 1.179842,-18.542399 c -0.0122,0.7016 -0.11228,1.3384 -0.218358,2.003399 -0.11394,0.7152 -0.232032,1.4548 -0.261866,2.3524 -0.02942,0.8736 0.0837,1.7818 0.19308,2.6602 0.220846,1.774 0.447492,3.6006 -0.42988,5.4028 A 7.307361,7.0543996 0 0 1 38.009418,24.9592 C 37.90024,24.704 37.66365,24.294 37.335904,23.7268 c -1.27535,-2.2082 -4.262352,-7.3792 -2.733218,-9.489199 0.786218,-1.0854 2.77776,-1.1322 4.512408,-0.926 z M 39.588274,27.339 a 25.639986,24.752399 0 0 0 -0.17672,-0.2148 l -0.07354,-0.0888 c 1.50448,-2.399 1.210296,-4.7724 0.948432,-6.877 -0.10752,-0.8636 -0.209036,-1.6792 -0.18334,-2.4452 0.02672,-0.8122 0.13798,-1.5086 0.2455,-2.1822 0.13238,-0.829999 0.266836,-1.688599 0.229752,-2.700999 0.02776,-0.1062 0.03894,-0.2316 0.02444,-0.3804 -0.09468,-0.971 -1.242822,-3.8760001 -3.582828,-6.5059999 -1.258774,-1.4146 -3.08603,-2.9943999 -5.57064,-4.0789998 1.087858,-0.2132 2.554014,-0.407 4.193984,-0.3718 4.250128,0.0912 7.612733,1.6269999 9.994379,4.5647997 a 1.8811192,1.8159999 0 0 1 0.13818,0.2004 C 47.273933,8.9692009 45.203665,18.8082 39.588274,27.339 Z M 21.322773,15.106601 C 21.270979,15.4654 20.682819,15.9516 20.036027,15.9516 a 1.2059466,1.1641999 0 0 1 -0.167601,-0.0112 c -0.388033,-0.052 -0.780002,-0.288 -1.048082,-0.6312 -0.09488,-0.120999 -0.249228,-0.355999 -0.218566,-0.568799 0.01139,-0.0802 0.05407,-0.197 0.191634,-0.2976 0.244877,-0.1788 0.72883,-0.2452 1.262919,-0.1734 0.655284,0.0882 1.331286,0.3876 1.266442,0.8372 z m 16.429753,-0.8228 c 0.023,0.1584 -0.10152,0.402 -0.31718,0.6204 -0.1415,0.1434 -0.439204,0.392199 -0.845054,0.446399 a 1.1303289,1.0911999 0 0 1 -0.15538,0.0104 c -0.60805,0 -1.121628,-0.468799 -1.161612,-0.743399 -0.04972,-0.353 0.54714,-0.6212 1.16244,-0.704 0.6153,-0.0828 1.266026,0.0176 1.316784,0.3702 z"
    fill="#4169e1" style="stroke-width:2.03554" />
</svg>