<svg viewBox="0 0 48 48" xmlns="http://www.w3.org/2000/svg" xmlns:svg="http://www.w3.org/2000/svg">
  <title>
    Redux
  </title>
  <path
    d="m 33.267455,33.017493 c 1.739972,-0.149997 3.085951,-1.679973 2.999952,-3.507944 -0.094,-1.827971 -1.591974,-3.295947 -3.417945,-3.295947 h -0.121998 a 3.4199455,3.4199455 0 0 0 -3.295948,3.537943 c 0.06,0.957985 0.451993,1.737973 0.987985,2.305964 -2.095967,4.075935 -5.241917,7.071887 -10.009841,9.589847 -3.205949,1.675973 -6.591895,2.307963 -9.887842,1.85997 C 7.7658619,43.117332 5.6098963,41.887352 4.2899173,39.909383 2.3139489,36.911431 2.1339517,33.677483 3.7799255,30.441534 4.9799063,28.101572 6.7778777,26.395599 7.9778585,25.555612 a 19.919682,19.919682 0 0 1 -0.8399866,-3.08595 c -8.8738585,6.355898 -7.96987287,15.04376 -5.2739159,19.149694 2.007968,2.995952 6.1139025,4.911922 10.607831,4.911922 1.199981,0 2.459961,-0.088 3.685941,-0.387994 7.793876,-1.497976 13.695782,-6.171902 17.081728,-13.063792 z m 10.69583,-7.49188 C 39.323359,20.0697 32.487468,17.073748 24.695592,17.073748 h -1.019984 c -0.505992,-1.107983 -1.673973,-1.797972 -2.995952,-1.797972 h -0.09 c -1.88597,0 -3.355946,1.619974 -3.293947,3.505944 0.06,1.795972 1.587975,3.295948 3.415945,3.295948 h 0.147998 a 3.3799461,3.3799461 0 0 0 2.997952,-2.097967 h 1.109983 c 4.617926,0 8.989856,1.347979 12.975793,3.983937 3.053951,2.009968 5.243916,4.645926 6.473896,7.793875 1.075983,2.575959 1.017984,5.093919 -0.09,7.193886 -1.709973,3.293947 -4.587927,5.033919 -8.391866,5.033919 -2.397962,0 -4.733925,-0.749988 -5.933906,-1.287979 -0.719988,0.59599 -1.919969,1.585975 -2.787955,2.185965 2.635958,1.195981 5.303915,1.88597 7.879874,1.88597 5.843907,0 10.187838,-3.293947 11.837811,-6.471897 1.795972,-3.595942 1.647974,-9.647846 -2.939953,-14.831763 z m -30.983506,8.567863 c 0.06,1.797972 1.585974,3.295948 3.415945,3.295948 h 0.119998 A 3.3759462,3.3759462 0 0 0 19.81167,33.85348 c 0,-1.799971 -1.557975,-3.293947 -3.385946,-3.293947 h -0.119998 c -0.119998,0 -0.299996,0 -0.451993,0.058 -2.48596,-4.195933 -3.535944,-8.693862 -3.14395,-13.543784 0.239996,-3.655942 1.439977,-6.833891 3.593943,-9.4698493 1.799971,-2.2479642 5.185917,-3.3599465 7.49388,-3.4159456 6.471897,-0.121998 9.169854,7.9418729 9.377851,11.1478219 l 2.995952,0.899986 C 35.48142,6.4039178 29.371517,1.25 23.527611,1.25 c -5.487913,0 -10.547832,3.9859364 -12.5878,9.829843 -2.7859553,7.789876 -0.9579844,15.283756 2.459961,21.277661 -0.299995,0.389994 -0.479992,1.077983 -0.419993,1.735972 z"
    fill="#764abc" style="stroke-width:1.99997" />
</svg>