<svg viewBox="0 0 48 48" xmlns="http://www.w3.org/2000/svg" xmlns:svg="http://www.w3.org/2000/svg">
  <title>
    Tailwind CSS
  </title>
  <path
    d="m 24,9.6 c -6.4,0 -10.4,3.2 -12,9.6 2.4,-3.2 5.2,-4.4 8.4,-3.6 1.826,0.456 3.13,1.78 4.576,3.248 C 27.33,21.236 30.052,24 36,24 42.4,24 46.4,20.8 48,14.4 45.6,17.6 42.8,18.8 39.6,18 37.774,17.544 36.47,16.22 35.024,14.752 32.672,12.364 29.95,9.6 24,9.6 Z M 12,24 C 5.6,24 1.6,27.2 0,33.6 2.4,30.4 5.2,29.2 8.4,30 c 1.826,0.456 3.13,1.78 4.576,3.248 2.354,2.388 5.076,5.152 11.024,5.152 6.4,0 10.4,-3.2 12,-9.6 -2.4,3.2 -5.2,4.4 -8.4,3.6 C 25.774,31.944 24.47,30.62 23.024,29.152 20.672,26.764 17.95,24 12,24 Z"
    fill="#06b6d4" style="stroke-width:2" />
</svg>