<?xml version="1.0" encoding="UTF-8" standalone="no"?>
<svg
   viewBox="0 0 48 48"
   version="1.1"
   id="svg19"
   sodipodi:docname="bash.svg"
   inkscape:version="1.1.2 (b8e25be833, 2022-02-05)"
   xmlns:inkscape="http://www.inkscape.org/namespaces/inkscape"
   xmlns:sodipodi="http://sodipodi.sourceforge.net/DTD/sodipodi-0.dtd"
   xmlns="http://www.w3.org/2000/svg"
   xmlns:svg="http://www.w3.org/2000/svg">
  <defs
     id="defs23" />
  <sodipodi:namedview
     id="namedview21"
     pagecolor="#ffffff"
     bordercolor="#666666"
     borderopacity="1.0"
     inkscape:pageshadow="2"
     inkscape:pageopacity="0.0"
     inkscape:pagecheckerboard="0"
     showgrid="false"
     inkscape:zoom="15.520833"
     inkscape:cx="24"
     inkscape:cy="23.838926"
     inkscape:window-width="2400"
     inkscape:window-height="1271"
     inkscape:window-x="-9"
     inkscape:window-y="-1359"
     inkscape:window-maximized="1"
     inkscape:current-layer="svg19" />
  <title
     id="title2">
      Bash
   </title>
  <style
     id="style4">
      .st0 {
         fill: #FFFFFF;
      }

      .st1 {
         fill: #2A3238;
      }

      .st2 {
         fill: #4DA925;
      }
   </style>
  <g
     transform="matrix(0.40677966,0,0,0.40677966,-9.3152544,-6.5898306)"
     id="g17">
    <g
       transform="translate(7.3750005)"
       id="g9">
      <g
         id="g7">
        <path
           class="st1"
           d="M 118.9,40.3 81.7,18.2 c -2.2,-1.3 -4.7,-2 -7.2,-2 -2.5,0 -5,0.7 -7.2,2 L 30.1,40.3 c -4.4,2.6 -7.2,7.5 -7.2,12.8 v 44.2 c 0,5.3 2.7,10.1 7.2,12.8 l 37.2,22.1 c 2.2,1.3 4.7,2 7.2,2 2.5,0 5,-0.7 7.2,-2 l 37.2,-22.1 c 4.4,-2.6 7.2,-7.5 7.2,-12.8 V 53 c 0,-5.2 -2.7,-10.1 -7.2,-12.7 z M 68.6,129.8 31.4,107.7 c -3.6,-2.2 -5.9,-6.2 -5.9,-10.5 V 53 c 0,-4.3 2.3,-8.4 5.9,-10.5 L 68.6,20.4 c 1.8,-1.1 3.8,-1.6 5.9,-1.6 2.1,0 4.1,0.6 5.9,1.6 l 37.2,22.1 c 3.1,1.8 5.1,5 5.7,8.5 -1.2,-2.6 -4,-3.4 -7.3,-1.5 L 80.9,71.3 c -4.4,2.6 -7.6,5.4 -7.6,10.7 v 43.4 c 0,3.2 1.3,5.2 3.2,5.8 -0.6,0.1 -1.3,0.2 -2,0.2 -2,0.1 -4.1,-0.5 -5.9,-1.6 z"
           id="path8" />
      </g>
    </g>
    <g
       id="g12">
      <path
         class="st2"
         d="m 109.2,101.5 -9.3,5.5 c -0.2,0.1 -0.4,0.3 -0.4,0.6 v 2.4 c 0,0.3 0.2,0.4 0.4,0.3 l 9.4,-5.7 c 0.2,-0.1 0.3,-0.4 0.3,-0.7 v -2.1 c 0,-0.3 -0.2,-0.4 -0.4,-0.3 z"
         id="path14" />
    </g>
    <g
       id="g15">
      <path
         class="st0"
         d="m 89.4,81.1 c 0.3,-0.2 0.5,0 0.6,0.4 v 3.2 c 1.3,-0.5 2.5,-0.7 3.6,-0.4 0.2,0.1 0.3,0.4 0.2,0.7 l -0.7,2.8 c -0.1,0.2 -0.2,0.4 -0.3,0.6 -0.1,0.1 -0.1,0.1 -0.2,0.1 -0.1,0 -0.2,0.1 -0.3,0 -0.5,-0.1 -1.6,-0.4 -3.4,0.6 -1.9,1 -2.6,2.6 -2.5,3.8 0,1.5 0.8,1.9 3.3,1.9 3.4,0.1 4.9,1.6 5,5 0,3.4 -1.8,7.1 -4.6,9.3 l 0.1,3.2 c 0,0.4 -0.2,0.8 -0.5,1 l -1.9,1.1 c -0.3,0.2 -0.5,0 -0.6,-0.4 v -3.1 c -1.6,0.7 -3.2,0.8 -4.3,0.4 -0.2,-0.1 -0.3,-0.4 -0.2,-0.7 l 0.7,-2.9 c 0.1,-0.2 0.2,-0.5 0.3,-0.6 0.1,-0.1 0.1,-0.1 0.2,-0.1 0.1,-0.1 0.2,-0.1 0.3,0 1.1,0.4 2.6,0.2 3.9,-0.5 1.8,-0.9 2.9,-2.7 2.9,-4.5 0,-1.6 -0.9,-2.3 -3,-2.3 -2.7,0 -5.2,-0.5 -5.3,-4.5 0,-3.3 1.7,-6.7 4.4,-8.8 v -3.2 c 0,-0.4 0.2,-0.8 0.5,-1 z"
         id="path18" />
    </g>
  </g>
  <path
     style="fill:#ffffff;fill-rule:evenodd;stroke:#00ff00;stroke-width:0;stroke-linecap:round;stroke-linejoin:round;paint-order:markers fill stroke"
     d="M 22.808054,46.686522 C 22.595436,46.624728 22.291007,46.515569 22.131544,46.443946 21.756137,46.27533 6.4751982,37.19865 6.0737941,36.90585 5.3251357,36.359747 4.6911803,35.45922 4.3361781,34.437584 L 4.1234899,33.825503 V 24 14.174497 l 0.148188,-0.511791 C 4.5565988,12.678688 5.1527522,11.754041 5.8912812,11.150666 6.1562522,10.934187 11.140352,7.9502091 20.491827,2.4093284 21.30864,1.925355 22.184875,1.4543713 22.439014,1.362698 c 1.33669,-0.48217085 2.750828,-0.3041249 4.170382,0.5250686 2.06174,1.2043094 14.878124,8.8359234 15.175166,9.0361704 0.754242,0.508459 1.438004,1.415357 1.782331,2.363969 0.189881,0.523115 0.186995,0.587812 -0.01549,0.347175 -0.09022,-0.107217 -0.322595,-0.272518 -0.516394,-0.367335 -0.316367,-0.154784 -0.406563,-0.169536 -0.882948,-0.144411 -0.387662,0.02044 -0.626981,0.07216 -0.888435,0.191975 -0.433499,0.19866 -15.183284,9.345887 -15.795682,9.79585 -0.623413,0.458057 -1.293723,1.202558 -1.557578,1.729973 -0.453958,0.907408 -0.431703,0.317169 -0.411639,10.917256 l 0.01805,9.535571 0.152511,0.386577 c 0.111055,0.281493 0.256783,0.487282 0.536097,0.757047 l 0.383583,0.37047 -0.697169,-0.0046 c -0.459886,-0.003 -0.828743,-0.04283 -1.083747,-0.116942 z"
     id="path914" />
  <path
     style="fill:#ffffff;fill-rule:evenodd;stroke:#00ff00;stroke-width:0;stroke-linecap:round;stroke-linejoin:round;paint-order:markers fill stroke"
     d="m 26.233557,39.871141 c -0.02362,-0.02362 -0.04295,-0.345652 -0.04295,-0.715618 0,-0.61442 -0.0098,-0.66886 -0.112752,-0.628724 -0.382448,0.149047 -0.918871,0.238864 -1.232973,0.206446 -0.536018,-0.05532 -0.546077,-0.08323 -0.335977,-0.932252 0.09906,-0.400326 0.206297,-0.753491 0.238293,-0.78481 0.032,-0.03132 0.217637,-0.03634 0.412537,-0.01116 1.282361,0.16569 2.45515,-0.740821 2.555451,-1.975245 0.02221,-0.27341 8.3e-5,-0.4235 -0.08699,-0.590004 -0.189043,-0.361485 -0.428244,-0.45584 -1.312991,-0.517927 -0.925925,-0.06498 -1.355672,-0.231364 -1.623479,-0.628573 -0.264698,-0.392595 -0.324243,-0.678164 -0.290623,-1.39376 0.05135,-1.092906 0.500223,-2.091372 1.312757,-2.920061 l 0.412317,-0.420515 v -0.6657 c 0,-0.366135 0.03036,-0.732299 0.06748,-0.813698 0.03711,-0.0814 0.261811,-0.269832 0.499329,-0.41874 0.553313,-0.346889 0.592925,-0.308608 0.592925,0.572989 0,0.347589 0.01308,0.631981 0.02907,0.631981 0.01599,0 0.196041,-0.04349 0.400114,-0.09664 0.45478,-0.118456 0.86166,-0.124099 1.012175,-0.01404 0.10685,0.07813 0.103758,0.119359 -0.0571,0.761308 -0.09354,0.373287 -0.194047,0.717503 -0.223355,0.764925 -0.03759,0.06082 -0.184831,0.08238 -0.499773,0.07318 -1.135849,-0.03317 -2.143012,0.808181 -2.143012,1.790194 0,0.650807 0.174497,0.773952 1.205761,0.85092 0.403265,0.0301 0.840689,0.08692 0.972053,0.126282 0.423775,0.126966 0.738158,0.392702 0.946262,0.799839 0.185005,0.361946 0.193866,0.415849 0.190203,1.157133 -0.0033,0.663834 -0.02895,0.852858 -0.17557,1.292939 -0.237036,0.711455 -0.692324,1.458254 -1.214211,1.991643 l -0.439858,0.449551 0.04042,0.660643 c 0.04838,0.79068 0.0136,0.867335 -0.54833,1.208691 -0.388999,0.236305 -0.471301,0.264701 -0.547202,0.188801 z"
     id="path953" />
</svg>
