<?xml version="1.0" encoding="UTF-8" standalone="no"?>

<svg width="48" height="48" viewBox="0 0 48 48" version="1.1" id="svg1" xml:space="preserve"
  xmlns="http://www.w3.org/2000/svg" xmlns:svg="http://www.w3.org/2000/svg">
  <title>Chai</title>
  <path style="fill:#a5524a;stroke:none"
    d="M 23.492628,0.56081239 C 21.700165,0.88129253 19.975609,2.0726189 18.40507,2.9404207 15.032946,4.8036918 11.743143,6.8075238 8.4511608,8.8072549 6.7487056,9.8414211 4.3473735,10.931775 3.5456549,12.884941 2.76868,14.777826 2.9263376,17.23468 2.9219376,19.24424 c -0.00775,3.537223 -0.056784,7.080892 0.010297,10.617511 0.03608,1.902194 -0.081486,4.446624 1.0447438,6.075126 0.9120843,1.318848 2.4828011,2.145581 3.8106677,2.97881 2.3962265,1.503625 4.8355875,2.930248 7.2994505,4.319814 1.974741,1.11371 3.939256,2.256089 5.972351,3.261468 1.173576,0.580341 2.415041,1.180755 3.760369,0.982428 1.876397,-0.27662 3.668843,-1.53888 5.308756,-2.423328 3.371402,-1.818286 6.703273,-3.729809 9.953907,-5.75664 1.63244,-1.017857 3.779024,-2.083929 4.586011,-3.93937 0.617637,-1.420088 0.470282,-3.101945 0.529713,-4.613515 0.110386,-2.807577 0.195138,-5.593881 0.192813,-8.40553 -0.0017,-1.997058 -0.159807,-3.978026 -0.213341,-5.972347 -0.03695,-1.376433 0.02325,-2.898089 -0.709167,-4.122745 -0.69578,-1.16339 -1.951151,-1.9193 -3.059721,-2.6395611 C 39.456911,8.3381843 37.448856,7.1534024 35.437329,5.982999 32.891582,4.5017619 30.332068,3.0328341 27.695393,1.7182145 26.39504,1.0698726 24.995601,0.29209119 23.492628,0.56081239 m 0.221198,2.17868841 c 1.341366,-0.1652843 2.602573,0.5037611 3.760369,1.0919364 2.099744,1.0666965 4.154492,2.2316186 6.193548,3.4092416 1.937391,1.1189077 3.873135,2.2540469 5.750289,3.4719932 1.112785,0.722003 2.369273,1.481035 3.079169,2.63924 0.676997,1.104533 0.649287,2.430878 0.707216,3.68036 0.08565,1.847498 0.195033,3.678975 0.195924,5.52994 0.0012,2.590058 -0.06156,5.155842 -0.184536,7.741935 -0.06218,1.307515 0.03245,2.727249 -0.515555,3.949861 -0.765863,1.708662 -2.649139,2.691275 -4.166201,3.634385 -2.964061,1.842672 -6.004216,3.569817 -9.069071,5.238652 -1.480643,0.806221 -3.16063,1.927738 -4.86636,2.134227 -1.428021,0.172869 -2.764361,-0.587156 -3.981567,-1.23108 -2.09183,-1.106618 -4.153507,-2.273606 -6.193548,-3.472699 C 12.5709,39.468574 10.716341,38.374927 8.8944153,37.235282 7.7732389,36.533966 6.5289381,35.785917 5.8139928,34.63568 4.30337,32.205326 4.9119836,28.174641 4.9119817,25.437788 c -1.9e-6,-2.576351 -0.078887,-5.167781 0.038328,-7.741929 0.057878,-1.271055 0.064851,-2.743807 0.630972,-3.909978 0.8255127,-1.700502 2.8788786,-2.665827 4.4182826,-3.605797 2.9217682,-1.7840519 5.8629882,-3.5185957 8.8479012,-5.1950452 1.488226,-0.8358486 3.133426,-2.0320049 4.86636,-2.245538 M 17.520277,16.81106 v 14.37788 c 2.691934,-1.172206 2.371049,-4.539915 4.202765,-6.635945 0.199673,1.566448 -0.08956,3.492951 0.465289,4.971997 0.64215,1.711772 2.213129,0.786932 2.852684,-0.326835 l -1.105991,0.663594 c -0.2479,-1.806714 0.205127,-4.127523 -0.478744,-5.816083 -0.374924,-0.925735 -1.305049,-0.977911 -2.062326,-0.45278 -0.927603,0.643242 -1.330166,1.70147 -1.661695,2.729693 h -0.221198 v -9.953917 l -1.990784,0.442396 m 17.917052,1.327189 0.442396,3.53917 c 1.210869,-1.098697 1.385422,-2.415645 1.548387,-3.981566 l -1.990783,0.442396 M 16.193088,28.313364 c -0.812698,0.447398 -1.694269,1.040836 -2.646109,1.106308 -2.871668,0.197525 -3.7257758,-5.064564 -0.71509,-5.094267 0.506288,-0.005 0.931541,0.230804 1.370416,0.448789 l 1.548387,-0.663595 c -0.545557,-0.487712 -1.071238,-0.900526 -1.813493,-1.03237 -0.645777,-0.114709 -1.316949,-0.02192 -1.925994,0.212535 -1.89977,0.731315 -3.0976826,2.778164 -2.6915766,4.792211 0.5018103,2.488685 3.2215446,3.355184 5.2580326,2.024772 0.707481,-0.462189 1.166175,-1.095902 1.615427,-1.794383 m 14.599079,0.884793 h 0.221198 c 0.788326,1.690932 2.209231,1.539885 3.096775,0 l -1.105991,0.663594 -0.221198,-4.645161 -1.769586,0.442396 c -0.08777,0.592788 -0.158923,1.196894 -0.3284,1.773561 -0.27562,0.937838 -1.321724,2.40069 -2.321772,1.2614 -0.94435,-1.075835 -0.531771,-3.155736 0.626101,-3.912738 1.021347,-0.667743 2.622926,-0.248229 3.793657,-0.449412 -0.605855,-0.544947 -1.197291,-0.995623 -2.024445,-1.134214 -2.968887,-0.497443 -5.332575,2.76954 -4.578734,5.52078 0.718491,2.622222 3.192162,2.090204 4.612395,0.479794 m 7.963134,0 -1.105991,0.663594 -0.221198,-6.857143 c -2.288967,0.931938 -2.732018,4.619804 -1.555276,6.697188 0.847544,1.496227 2.241424,0.568859 2.882465,-0.503639 z"
    id="path4912" />
  <path style="fill:#a5524a;stroke:none"
    d="M 23.492628,0.37836509 C 21.862741,0.80337567 20.319849,1.9139129 18.847466,2.7011989 15.227482,4.6368076 11.747226,6.8230194 8.2299542,8.9364211 6.6903793,9.8614969 3.9399399,10.991023 3.3859818,12.835525 2.7716846,14.880936 2.9211982,17.350011 2.9211982,19.465438 v 10.175115 c 6.314e-4,1.785408 -0.2175283,4.855174 0.8481255,6.368975 0.8210159,1.166286 2.3953212,1.888909 3.5758378,2.630286 2.5440962,1.597722 5.1255885,3.114065 7.7419355,4.589463 2.12375,1.197615 4.233028,2.408517 6.414747,3.498607 1.141257,0.570223 2.226745,1.222051 3.539171,0.865534 1.573458,-0.427427 2.992124,-1.442223 4.423963,-2.188571 3.691683,-1.924295 7.310519,-4.031034 10.83871,-6.240541 1.457959,-0.913037 4.027079,-2.002749 4.559965,-3.77334 0.513073,-1.704758 0.210093,-3.563125 0.33177,-5.308017 0.287383,-4.121144 0.287383,-8.265953 0,-12.387096 -0.120583,-1.729178 0.41963,-4.206384 -0.625705,-5.723445 C 43.858554,10.940317 42.440352,10.259951 41.409679,9.5890933 38.820689,7.9039425 36.128242,6.365465 33.446545,4.8339304 31.262645,3.5866902 29.060263,2.39613 26.8106,1.2721155 25.773707,0.75404688 24.694831,0.0648784 23.492628,0.37836509 m 0.221198,2.16120481 c 1.112164,-0.2003089 2.14352,0.4679703 3.096774,0.9445272 1.949554,0.9746341 3.858588,2.038563 5.751152,3.1194185 2.383939,1.3614812 4.783542,2.728366 7.078342,4.2367874 0.976349,0.641773 2.253497,1.269203 2.944103,2.238095 0.95413,1.338604 0.497554,3.306234 0.638506,4.838653 0.363251,3.949198 0.257384,7.99473 -0.01806,11.9447 -0.104658,1.50083 0.226568,3.219818 -0.392105,4.642829 -0.690107,1.58732 -2.885871,2.516808 -4.278431,3.390141 -2.887568,1.810919 -5.877362,3.445424 -8.847927,5.113216 -1.512284,0.849056 -3.363229,2.141933 -5.087558,2.452493 -1.036392,0.18666 -1.984954,-0.385011 -2.875576,-0.8341 -2.028049,-1.022633 -4.00066,-2.16809 -5.97235,-3.294704 C 13.516161,40.054829 11.319329,38.710099 9.1147469,37.382347 7.9854375,36.702197 6.5218349,35.98976 5.7282474,34.903537 4.7708859,33.593154 4.9139007,30.980669 4.9120102,29.419355 L 4.9119817,19.24424 c 1.79e-5,-1.670125 -0.1613227,-3.946924 0.4661207,-5.516642 0.6379444,-1.595988 3.010176,-2.57873 4.400239,-3.419185 3.0026946,-1.8154852 6.0126076,-3.5928841 9.0691246,-5.3164921 1.482901,-0.8362267 3.163362,-2.1456282 4.86636,-2.452351 M 17.520277,16.81106 v 14.37788 c 0.580912,-0.161558 1.3512,-0.299074 1.742533,-0.806822 0.454468,-0.58966 0.427475,-1.586756 0.572965,-2.289952 0.294248,-1.42219 0.722639,-2.62512 1.887267,-3.539171 0.302416,1.665624 -0.284956,3.970091 0.379871,5.495304 0.715696,1.641918 2.798116,0.503718 2.938102,-0.850142 l -1.105991,0.663594 c -0.311166,-1.379464 -0.220685,-2.795872 -0.221198,-4.202765 -2.45e-4,-0.670466 0.116418,-1.523748 -0.186835,-2.146128 -0.388508,-0.797352 -1.356807,-0.738357 -2.011265,-0.320647 -1.072697,0.684654 -1.583376,1.932067 -1.783467,3.13037 h -0.221198 v -9.953917 l -1.990784,0.442396 m 17.917052,1.327189 0.442396,3.53917 c 1.501934,-0.691851 1.470686,-2.4977 1.548387,-3.981566 l -1.990783,0.442396 M 16.193088,28.313364 c -0.867633,0.409275 -1.687259,1.266918 -2.654378,1.406837 -1.973571,0.285537 -3.220519,-2.448231 -2.713376,-4.060447 0.33087,-1.05184 1.328393,-1.941578 2.470075,-1.531973 0.383613,0.137629 0.617999,0.376584 0.906896,0.646413 l 1.548387,-0.663595 c -1.056988,-1.818063 -3.590309,-1.42047 -5.041617,-0.257039 -1.2871902,1.031865 -1.7696267,2.636992 -1.542357,4.238606 0.5447249,3.838782 5.956307,3.536977 7.02637,0.221198 m 14.599079,0.884793 h 0.221198 c 0.22189,2.110347 2.884517,2.052874 3.096775,0 l -1.105991,0.663594 -0.221198,-4.645161 -1.769586,0.442396 c -0.09512,0.727901 -0.140922,1.497548 -0.308756,2.211811 -0.245213,1.043565 -1.391435,2.3404 -2.40536,1.242362 -1.134153,-1.228243 -0.681029,-3.929152 0.751779,-4.745377 0.83717,-0.476909 1.380923,0.127949 2.182341,0.291546 0.551392,0.112559 1.048433,-0.13389 1.549582,-0.327531 -1.154625,-1.759081 -3.774024,-1.702204 -5.276611,-0.354838 -1.315776,1.179852 -1.908442,3.29162 -1.443138,4.997667 0.720982,2.643493 3.601086,2.253824 4.728965,0.223531 m 7.963134,0 -1.105991,0.663594 -0.221198,-6.857143 c -0.607502,0.116622 -1.35442,0.238645 -1.736528,0.790891 -0.31774,0.45922 -0.251383,1.113639 -0.254056,1.642318 -0.0068,1.353797 -0.422196,3.65021 0.431872,4.800335 1.013993,1.365487 2.632291,0.246306 2.885901,-1.039995 z"
    id="path4911" />
  <g transform="translate(57.948186,-4.4766839)" />
</svg>