<svg viewBox="0 0 48 48" xmlns="http://www.w3.org/2000/svg" xmlns:svg="http://www.w3.org/2000/svg">
   <title>
      Docker
   </title>
   <path stroke="#066da5" stroke-width="4.49847"
      d="m 27.164983,20.640266 h 4.971992 m -10.891031,0 h 4.971993 m -10.772651,0 h 4.971993 m -10.7726508,0 H 14.49824 m -10.7726509,0 H 8.6975818 M 9.6446282,15.19475 H 14.49824 m 0.947046,0 h 4.971993 m 0.828665,0 h 4.971993 M 21.245944,9.7492349 h 4.971993" />
   <path fill="#066da5"
      d="m 48,20.877028 c 0,0 -2.130854,-2.012473 -6.510943,-1.302188 -0.473525,-3.433043 -4.143327,-5.445516 -4.143327,-5.445516 0,0 -3.433043,4.143327 -0.947046,8.760177 -0.710285,0.355142 -1.894092,0.828666 -3.669804,0.828666 H 0.17416569 C -0.41773825,25.967401 -0.41773825,40.88338 15.918809,40.88338 c 11.719697,0 20.479875,-5.445517 24.623202,-15.389502 C 46.697812,25.967401 48,20.877028 48,20.877028"
      style="stroke-width:0.11838" />
</svg>