<svg viewBox="0 0 48 48" xmlns="http://www.w3.org/2000/svg" xmlns:svg="http://www.w3.org/2000/svg">
  <title>
    Express.js
  </title>
  <path
    d="M 47.999988,37.10279 A 3.0579985,3.0579985 0 0 1 44.20999,35.662791 L 37.309993,26.120796 36.309994,24.786797 28.303998,35.674791 A 2.9319985,2.9319985 0 0 1 24.7,37.09079 L 35.015994,23.250798 25.419999,10.748804 a 3.1899984,3.1899984 0 0 1 3.799998,1.331999 l 7.151997,9.659995 7.191996,-9.619995 a 2.8699986,2.8699986 0 0 1 3.575998,-1.335999 l -3.723998,4.941997 -5.043997,6.565997 a 1.3319993,1.3319993 0 0 0 0,1.987999 L 47.979988,37.10479 Z M 0.00401199,23.078798 0.84401157,18.9288 C 3.1520104,10.722804 12.560006,7.3088056 19.032002,12.388803 22.822001,15.366802 23.768,19.582799 23.582,24.334797 H 2.2320109 C 1.8860111,32.820793 8.010008,37.94479 15.840004,35.326791 a 8.1559959,8.1559959 0 0 0 5.163997,-5.751997 c 0.414,-1.331999 1.096,-1.559999 2.347999,-1.175999 A 10.833995,10.833995 0 0 1 18.174003,36.312791 12.543994,12.543994 0 0 1 3.5620102,34.446792 13.149993,13.149993 0 0 1 0.28201186,26.730796 c 0,-0.47 -0.15999992,-0.91 -0.26799987,-1.331999 A 176.65991,176.65991 0 0 1 1.1996267e-5,23.080798 Z m 2.25399891,-0.572 H 21.566001 c -0.12,-6.151997 -4.001998,-10.515995 -9.179995,-10.555995 -5.7639973,-0.08 -9.8879953,4.187998 -10.1419951,10.527995 z"
    fill="#000000" style="stroke-width:2" />
</svg>