<svg width="48" height="48" viewBox="0 0 48 48" version="1.1" xml:space="preserve" xmlns="http://www.w3.org/2000/svg"
  xmlns:svg="http://www.w3.org/2000/svg">
  <g transform="translate(0.1)">
    <path style="opacity:1;fill:#38a8bd;fill-opacity:1"
      d="M 5.0651635,24.243263 C 4.8268028,23.716883 4.3500817,22.664124 4.0190233,21.882825 3.6879649,21.101527 3.5025772,20.591711 3.3403581,20.022287 3.178139,19.452864 3.039098,18.823869 2.9596438,18.489501 2.8801896,18.155132 2.860329,18.115411 2.7080395,18.118721 2.55575,18.122031 2.2710482,18.168377 2.0856548,18.145202 1.9002614,18.122026 1.8141896,18.029334 1.4897486,17.476459 1.1653075,16.923585 0.60252248,15.910572 0.33105654,15.308048 0.0595906,14.705523 0.07945361,14.513514 0.11464173,14.360681 c 0.0351881,-0.152833 0.14358229,-0.39672 0.17684182,-0.442074 0.0332595,-0.04535 0.10924789,-0.148974 0.30284255,-0.270309 0.19359465,-0.121335 0.5047815,-0.260375 3.8617577,-1.687256 3.3569761,-1.42688 9.7594792,-4.1414886 13.0005202,-5.5021305 3.241041,-1.3606419 3.320498,-1.3672632 3.39002,-1.3639525 0.06952,0.00331 0.129112,0.016553 0.208567,0.049659 0.07945,0.033106 0.178769,0.086074 0.244981,0.1589079 0.06621,0.072834 0.09932,0.1655256 0.261539,2.0757591 0.162221,1.9102334 0.453545,5.6378546 0.603349,7.5670886 0.149803,1.929233 0.158079,2.059996 0.144836,2.154349 -0.01324,0.09435 -0.048,0.152283 -0.133251,0.219324 -0.08525,0.06704 -0.220978,0.143181 -1.991337,0.94187 -1.770358,0.798689 -5.175205,2.319863 -7.890716,3.533194 -2.7155108,1.21333 -4.7415355,2.118752 -5.7810531,2.573121 -1.0395176,0.45437 -1.0924857,0.45767 -1.1297288,0.449389 -0.037243,-0.0083 -0.058765,-0.02815 -0.069523,-0.03808 -0.010759,-0.0099 -0.010763,-0.0099 -0.2491233,-0.53628 z"
      transform="translate(-0.09455221,-0.09469387)" />
    <path style="opacity:1;fill:#38a8bd;fill-opacity:1"
      d="m 9.2606733,25.751948 c 2.7295317,-1.21908 8.1183357,-3.611503 10.8361517,-4.803032 2.717815,-1.191529 2.764629,-1.182167 2.800721,-1.16491 0.03609,0.01726 0.06146,0.04241 0.325284,0.94437 0.263822,0.901964 1.26936,4.46303 1.263723,4.494969 -0.0056,0.03194 -0.01758,0.09961 -0.0509,0.159487 -0.03332,0.05988 -0.088,0.11196 -2.465003,1.335942 -2.377,1.223982 -7.076125,3.619768 -9.444614,4.818984 -2.368489,1.199217 -2.406249,1.201817 -2.44857,1.193351 -0.04232,-0.0085 -0.089191,-0.02799 -0.3320322,-0.349611 C 9.5025975,32.059881 9.0638033,31.436197 8.482298,30.557832 7.9007927,29.679466 7.1034931,28.432078 6.766146,27.865901 6.428799,27.299724 6.409712,27.181112 6.4352992,27.098937 c 0.025587,-0.08217 0.095842,-0.127909 2.8253741,-1.346989 z"
      transform="translate(-0.09455221,-0.09469387)" />
    <path style="opacity:1;fill:#38a8bd;fill-opacity:1"
      d="m 11.744602,34.648232 c 4.507805,-2.305462 9.015611,-4.610925 11.293857,-5.768444 2.278245,-1.157518 2.326921,-1.16709 2.378606,-1.175132 0.05169,-0.008 0.106372,-0.01455 0.151295,-0.01065 0.04492,0.0039 0.08008,0.01823 0.111327,0.04362 0.03125,0.02539 0.0586,0.06185 0.259637,0.421109 0.20104,0.359256 0.95283,1.727572 1.169233,2.009997 0.216403,0.282424 0.65186,0.850732 1.062946,1.351263 0.411086,0.500531 0.797777,0.933257 1.202894,1.326405 0.405118,0.393147 0.828637,0.746694 1.196925,1.035799 0.368288,0.289106 0.681324,0.513755 1.089204,0.77524 0.40788,0.261485 0.910579,0.55979 1.657286,0.897695 0.746708,0.337906 1.737374,0.71539 2.531954,0.94741 0.79458,0.23202 1.392983,0.318558 2.36073,0.405112 0.967748,0.08655 2.304512,0.173094 3.641386,0.259641 0.04788,-0.02394 0.09501,-0.04751 0.132211,-0.07992 0.0372,-0.03241 0.06298,-0.07292 0.06298,-0.133689 1e-6,-0.06077 -0.02578,-0.141792 -0.03591,-0.228337 -0.01013,-0.08655 -0.0046,-0.17862 0.01657,-0.251356 0.02117,-0.07274 0.05801,-0.126138 0.121534,-0.172174 0.06353,-0.04604 0.153758,-0.0847 0.247418,-0.118694 0.09366,-0.03399 0.289357,-0.09307 0.456333,-0.154539 0.166975,-0.06147 0.502705,-0.185062 0.718453,-0.257909 0.215748,-0.07285 0.311495,-0.09494 0.400807,-0.09218 0.08931,0.0028 0.172171,0.03038 0.228335,0.06076 0.05616,0.03038 0.08563,0.06353 0.126138,0.08839 0.04051,0.02486 0.09207,0.04143 0.298314,-0.02946 0.206244,-0.0709 0.567156,-0.229255 0.820352,-0.336058 0.253197,-0.106802 0.398668,-0.162045 0.523885,-0.192427 0.125217,-0.03038 0.230177,-0.03591 0.412481,0.121539 0.182304,0.157445 0.441939,0.477846 0.661991,0.782604 0.220052,0.304759 0.400508,0.593857 0.536774,0.819432 0.136266,0.225576 0.228336,0.387619 0.283578,0.522045 0.05524,0.134425 0.07366,0.241226 0.08102,0.344347 0.0074,0.103121 0.0037,0.202555 -0.01473,0.294628 -0.01842,0.09207 -0.05156,0.176773 -0.111409,0.255036 -0.05985,0.07826 -0.146391,0.150075 -0.264243,0.226494 -0.117852,0.07642 -0.267006,0.157441 -0.418005,0.228337 -0.150999,0.0709 -0.303833,0.131661 -0.472325,0.195191 -0.168491,0.06353 -0.352631,0.12982 -0.494421,0.184142 -0.141791,0.05432 -0.241224,0.09667 -0.330533,0.151916 -0.08931,0.05524 -0.168492,0.123377 -0.21637,0.187827 -0.04788,0.06445 -0.06445,0.125217 -0.07182,0.183219 -0.0074,0.058 -0.0055,0.113251 -0.0083,0.16113 -0.0028,0.04788 -0.01013,0.08838 -0.0396,0.130737 -0.02947,0.04236 -0.08102,0.08655 -0.163887,0.133505 -0.08286,0.04696 -0.197032,0.09667 -0.510999,0.221893 -0.313968,0.125218 -0.827715,0.32593 -1.130628,0.425371 -0.302913,0.09944 -0.394987,0.09761 -0.470488,0.08472 -0.0755,-0.01289 -0.134423,-0.03682 -0.187824,-0.07365 -0.0534,-0.03683 -0.101276,-0.08654 -0.155599,-0.181379 -0.05432,-0.09483 -0.115088,-0.23478 -0.172172,-0.298309 -0.05708,-0.06353 -0.110486,-0.05064 -0.201637,-0.01841 -0.09115,0.03223 -0.22005,0.08378 -0.536474,0.205204 -0.316424,0.12142 -1.326126,0.504665 -1.612903,0.587389 -0.286777,0.08272 -0.861781,0.248591 -1.486957,0.426293 -0.625176,0.177703 -1.977246,0.557167 -2.291803,0.616032 -0.314557,0.05886 -0.944644,0.176775 -1.68323,0.303866 -0.738586,0.127091 -1.585624,0.263354 -2.345218,0.34898 -0.759594,0.08563 -1.431701,0.120613 -2.206028,0.121533 -0.774328,9.2e-4 -1.650828,-0.03223 -2.574311,-0.104964 -0.923484,-0.07274 -1.893895,-0.185063 -2.550365,-0.282659 -0.656471,-0.0976 -0.99897,-0.180459 -1.630332,-0.361764 -0.631361,-0.181305 -2.473279,-0.741248 -2.729476,-0.856032 -0.256197,-0.114783 -0.770631,-0.345264 -1.297627,-0.608745 -0.526996,-0.26348 -1.066522,-0.559943 -1.926479,-1.119745 -0.859957,-0.559801 -2.040286,-1.382901 -3.220639,-2.206017"
      transform="translate(-0.09455221,-0.09469387)" />
  </g>
</svg>