<?xml version="1.0" encoding="UTF-8" standalone="no"?>
<svg
   viewBox="0 0 48 48"
   version="1.1"
   id="svg6"
   sodipodi:docname="javascript.svg"
   inkscape:version="1.1.2 (b8e25be833, 2022-02-05)"
   xmlns:inkscape="http://www.inkscape.org/namespaces/inkscape"
   xmlns:sodipodi="http://sodipodi.sourceforge.net/DTD/sodipodi-0.dtd"
   xmlns="http://www.w3.org/2000/svg"
   xmlns:svg="http://www.w3.org/2000/svg">
  <defs
     id="defs10" />
  <sodipodi:namedview
     id="namedview8"
     pagecolor="#ffffff"
     bordercolor="#666666"
     borderopacity="1.0"
     inkscape:pageshadow="2"
     inkscape:pageopacity="0.0"
     inkscape:pagecheckerboard="0"
     showgrid="false"
     inkscape:zoom="15.520833"
     inkscape:cx="24"
     inkscape:cy="23.838926"
     inkscape:window-width="2400"
     inkscape:window-height="1271"
     inkscape:window-x="-9"
     inkscape:window-y="-1359"
     inkscape:window-maximized="1"
     inkscape:current-layer="svg6" />
  <title
     id="title2">
    JavaScript
  </title>
  <path
     d="M 0,0 H 48 V 48 H 0 Z m 44.068,36.552 c -0.35,-2.19 -1.776,-4.03 -6.006,-5.746 -1.472,-0.69 -3.108,-1.17 -3.594,-2.28 -0.182,-0.66 -0.21,-1.02 -0.092,-1.41 0.3,-1.292 1.83,-1.68 3.03,-1.32 0.78,0.24 1.5,0.84 1.952,1.8 2.068,-1.352 2.068,-1.352 3.51,-2.25 -0.54,-0.84 -0.808,-1.202 -1.172,-1.56 -1.26,-1.41 -2.938,-2.13 -5.668,-2.068 l -1.41,0.178 c -1.352,0.33 -2.64,1.05 -3.42,2.01 -2.28,2.582 -1.622,7.082 1.138,8.942 2.73,2.04 6.722,2.488 7.232,4.41 0.48,2.34 -1.74,3.09 -3.932,2.82 -1.622,-0.36 -2.52,-1.172 -3.51,-2.672 l -3.66,2.102 c 0.42,0.96 0.9,1.378 1.62,2.218 3.48,3.512 12.18,3.332 13.742,-2.008 0.058,-0.18 0.48,-1.41 0.148,-3.3 z M 26.102,22.062 h -4.496 c 0,3.876 -0.018,7.728 -0.018,11.61 0,2.464 0.126,4.726 -0.276,5.422 -0.66,1.378 -2.36,1.202 -3.132,0.96 -0.792,-0.392 -1.194,-0.932 -1.66,-1.71 -0.126,-0.21 -0.22,-0.392 -0.254,-0.392 l -3.65,2.25 c 0.61,1.26 1.5,2.344 2.648,3.034 1.71,1.02 4.008,1.35 6.414,0.81 1.566,-0.452 2.916,-1.382 3.622,-2.822 1.02,-1.86 0.804,-4.14 0.794,-6.692 0.024,-4.108 0,-8.218 0,-12.358 z"
     fill="#f7df1e"
     style="stroke-width:2"
     id="path4" />
</svg>
