<svg viewBox="0 0 48 48" xmlns="http://www.w3.org/2000/svg" xmlns:svg="http://www.w3.org/2000/svg">
  <title>
    Mongoose
  </title>
  <path
    d="m 47.999914,40.905783 h -5.536159 v -18.72877 q 0,-2.120252 -0.206128,-4.093264 -0.176684,-1.973012 -0.795089,-3.150934 -0.677292,-1.266254 -1.943546,-1.914103 -1.266254,-0.647849 -3.6515,-0.647849 -2.326423,0 -4.652846,1.177923 -2.326422,1.148457 -4.652845,2.944806 0.08833,0.677293 0.14724,1.590178 0.05889,0.883442 0.05889,1.766863 V 40.905826 H 21.23177 v -18.72877 q 0,-2.179097 -0.206128,-4.122772 -0.176684,-1.973012 -0.795089,-3.150935 -0.677293,-1.266253 -1.943546,-1.884659 -1.266254,-0.647848 -3.6515,-0.647848 -2.267406,0 -4.564321,1.119013 -2.2674059,1.119014 -4.5350275,2.856497 v 24.55872 H 0 V 8.0129288 H 5.5361585 V 11.664428 Q 8.1275106,9.5147326 10.68957,8.3073663 13.280922,7.1 16.19622,7.1 q 3.357062,0 5.683485,1.4134942 2.355931,1.4134941 3.504388,3.9166438 3.357063,-2.8269879 6.12525,-4.0637549 2.768186,-1.2662539 5.918905,-1.2662539 5.418341,0 7.9804,3.2980458 Q 48,13.666927 48,19.55654 Z"
    fill="#880000" style="stroke-width:2.1539" />
</svg>