<svg viewBox="0 0 48 48" xmlns="http://www.w3.org/2000/svg" xmlns:svg="http://www.w3.org/2000/svg">
  <title>
    MongoDB
  </title>
  <path
    d="m 34.41713,19.11 c -2.528,-11.16 -8.504,-14.828 -9.146,-16.23 -0.56,-0.788 -1.06,-1.908 -1.47,-2.88 -0.072,0.99 -0.11,1.37 -1.046,2.368 -1.446,1.132 -8.876,7.364 -9.48,20.04 -0.564,11.824 8.54,18.87 9.776,19.768 l 0.14,0.1 a 146.98,146.98 0 0 1 0.66,5.724 h 0.962 c 0.228,-2.064 0.568,-4.112 1.02,-6.14 0.834,-0.592 1.208,-0.926 1.7,-1.386 a 22.684,22.684 0 0 0 7.278,-16.928 c 0.02,-1.628 -0.206,-3.324 -0.394,-4.436 z m -10.672,16.39 c 0,0 0,-16.582 0.55,-16.58 0.426,0 0.98,21.39 0.98,21.39 -0.762,-0.09 -1.53,-3.52 -1.53,-4.81 z"
    fill="#47a248" style="stroke-width:2" />
</svg>