<svg viewBox="0 0 48 48" xmlns="http://www.w3.org/2000/svg" xmlns:svg="http://www.w3.org/2000/svg">
   <title>
      MUI
   </title>
   <path
      d="m 40.457999,31.582004 a 1.3319999,1.3319999 0 0 0 0.488,-0.486 1.3319999,1.3319999 0 0 0 0.18,-0.666 l 0.024,-7.715998 a 1.3319999,1.3319999 0 0 1 0.18,-0.666 1.3319999,1.3319999 0 0 1 0.49,-0.486 l 4.18,-2.406 a 1.3339999,1.3339999 0 0 1 0.666,-0.176 1.3339999,1.3339999 0 0 1 0.666,0.18 1.3339999,1.3339999 0 0 1 0.488,0.486 1.3319999,1.3319999 0 0 1 0.178,0.666 v 14.027998 a 1.3339999,1.3339999 0 0 1 -0.67,1.156 L 31.542,44.564003 a 1.3319999,1.3319999 0 0 1 -1.324,0 L 17.83,37.480004 a 1.3339999,1.3339999 0 0 1 -0.492,-0.488 1.3339999,1.3339999 0 0 1 -0.18,-0.67 v -7.074 c 0,-0.008 0.008,-0.012 0.016,-0.008 0.008,0.004 0.016,0 0.016,-0.01 v -0.008 c 0,-0.006 0.004,-0.01 0.008,-0.014 l 10.204,-5.859999 c 0.008,-0.006 0.004,-0.02 -0.006,-0.02 a 0.01,0.01 0 0 1 -0.008,-0.004 0.01,0.01 0 0 1 -0.002,-0.008 l 0.02,-6.933999 a 1.3339999,1.3339999 0 0 0 -0.666,-1.16 1.3339999,1.3339999 0 0 0 -1.334,0 l -7.582,4.372 a 1.3339999,1.3339999 0 0 1 -1.33,0 l -7.6079991,-4.38 a 1.3339999,1.3339999 0 0 0 -1.9979999,1.154 v 12.533998 a 1.3339999,1.3339999 0 0 1 -0.6639999,1.154 1.3319999,1.3319999 0 0 1 -0.664,0.18 1.3339999,1.3339999 0 0 1 -0.6659999,-0.176 L 0.67200141,27.646005 a 1.3339999,1.3339999 0 0 1 -0.49199997,-0.488 1.3339999,1.3339999 0 0 1 -0.1799999848734,-0.672 L 0.03800145,4.5800067 A 1.3339999,1.3339999 0 0 1 2.0340013,3.4260068 L 16.494,11.732006 a 1.3339999,1.3339999 0 0 0 1.33,0 L 32.279999,3.4260068 a 1.3319999,1.3319999 0 0 1 0.666,-0.176 1.3319999,1.3319999 0 0 1 0.666,0.18 1.3339999,1.3339999 0 0 1 0.488,0.488 1.3339999,1.3339999 0 0 1 0.176,0.6659999 V 26.496005 c 0,0.234 -0.06,0.464 -0.178,0.668 a 1.3339999,1.3339999 0 0 1 -0.49,0.488 L 26.038,32.012004 a 1.3339999,1.3339999 0 0 0 -0.49,0.49 1.3319999,1.3319999 0 0 0 -0.178,0.668 1.3339999,1.3339999 0 0 0 0.18,0.668 1.3319999,1.3319999 0 0 0 0.494,0.488 l 4.176,2.378 a 1.3399999,1.3399999 0 0 0 0.66,0.174 1.3339999,1.3339999 0 0 0 0.664,-0.178 l 8.913999,-5.12 z m 0.876,-19.655998 a 1.3319999,1.3319999 0 0 0 0.18,0.67 1.3319999,1.3319999 0 0 0 0.496,0.488 1.3339999,1.3339999 0 0 0 1.34,-0.016 l 4.002,-2.4 a 1.3319999,1.3319999 0 0 0 0.474,-0.486 1.3339999,1.3339999 0 0 0 0.174,-0.6579996 V 4.6360067 a 1.3339999,1.3339999 0 0 0 -0.182,-0.6699999 1.3339999,1.3339999 0 0 0 -1.168,-0.66 1.3339999,1.3339999 0 0 0 -0.668,0.188 l -4,2.3999998 a 1.3319999,1.3319999 0 0 0 -0.476,0.486 1.3359999,1.3359999 0 0 0 -0.172,0.658 v 4.8899994 z"
      fill="#007fff" style="stroke-width:2" />
</svg>