<svg id="pillar-logo" viewBox="0 0 48 48" xmlns="http://www.w3.org/2000/svg">
  <path
    d="M0 20.9455C0 13.6139 0 9.94806 1.42682 7.14776C2.68189 4.68455 4.68455 2.68189 7.14776 1.42682C9.94806 0 13.6139 0 20.9455 0H27.0545C34.3861 0 38.0519 0 40.8522 1.42682C43.3155 2.68189 45.3181 4.68455 46.5732 7.14776C48 9.94806 48 13.6139 48 20.9455V27.0545C48 34.3861 48 38.0519 46.5732 40.8522C45.3181 43.3155 43.3155 45.3181 40.8522 46.5732C38.0519 48 34.3861 48 27.0545 48H20.9455C13.6139 48 9.94806 48 7.14776 46.5732C4.68455 45.3181 2.68189 43.3155 1.42682 40.8522C0 38.0519 0 34.3861 0 27.0545V20.9455Z"
    fill="#2F5DFB" />
  <path
    d="M24.7474 11.7048C20.4627 11.7048 20.8303 11.6703 16.5456 11.7048C15.7797 11.7048 10.8862 11.4901 10.9092 10.7692C10.9628 9.05143 10.7943 9.28532 12.4714 9.28149C20.8724 9.28149 29.2772 9.31216 37.6782 9.28149C38.5244 9.28149 38.7274 9.53456 38.7274 10.2976C38.7274 11.0606 38.7044 10.612 38.7274 10.7654C38.8346 11.4786 33.8912 11.7086 33.1139 11.7048C28.7947 11.655 29.0858 11.7048 24.7474 11.7048Z"
    fill="white" />
  <path
    d="M24.9121 13.0392C28.5765 13.0392 32.2409 13.0698 35.9091 13.0392C36.6175 13.0392 36.8702 13.2194 36.8434 13.9287C36.7783 15.6964 26.6084 15.4625 24.8393 15.4625C17.6981 15.4625 12.7509 15.2938 12.7931 14.4694C12.8696 12.8896 12.6284 13.0468 14.2405 13.043C17.7964 13.0379 21.3536 13.0366 24.9121 13.0392Z"
    fill="white" />
  <path
    d="M18.4792 17.7324C18.4792 16.9387 18.4792 16.816 19.5629 16.816C20.6465 16.816 20.6427 17.8628 20.6427 18.5568C20.6427 29.7417 20.6427 37.395 20.6427 38.7601C20.6427 40.1251 18.4792 42.7402 18.4792 40.6773C18.4754 35.2977 18.4792 23.1427 18.4792 17.7324Z"
    fill="white" />
  <path
    d="M24.1501 35.7884C24.1501 37.1343 22.002 39.9794 22.002 37.6251C22.002 28.8406 22.002 26.6358 21.9828 17.8475C21.9828 16.7623 22.136 16.7815 22.875 16.8352C24.2879 16.9425 24.1348 17.4103 24.1348 19.1818C24.1348 20.9533 24.1501 34.4426 24.1501 35.7884Z"
    fill="white" />
  <path
    d="M25.4864 17.9663C25.4864 17.1151 25.6319 16.7892 26.2025 16.816C27.8834 16.8965 27.6345 17.2301 27.6345 19.431C27.6345 21.632 27.6345 30.6274 27.6345 32.4909C27.6345 34.3544 25.4788 36.1259 25.4788 34.224C25.4788 32.3222 25.5132 21.5285 25.4864 17.9663Z"
    fill="white" />
  <path
    d="M28.9939 17.7593C28.9939 17.0614 29.1355 16.793 29.7099 16.816C31.387 16.8812 31.1381 17.1534 31.1381 18.9594C31.1381 20.7654 31.1611 28.1389 31.1611 29.665C31.1611 31.191 29.0053 32.6481 29.0053 31.0875C29.0053 29.5269 29.0168 20.6811 28.9939 17.7593Z"
    fill="white" />
  <path
    d="M15.841 19.5614C16.56 19.5614 17.1429 18.9468 17.1429 18.1887C17.1429 17.4306 16.56 16.816 15.841 16.816C15.122 16.816 14.5391 17.4306 14.5391 18.1887C14.5391 18.9468 15.122 19.5614 15.841 19.5614Z"
    fill="white" />
  <path
    d="M33.7879 19.5614C34.5069 19.5614 35.0897 18.9468 35.0897 18.1887C35.0897 17.4306 34.5069 16.816 33.7879 16.816C33.0688 16.816 32.486 17.4306 32.486 18.1887C32.486 18.9468 33.0688 19.5614 33.7879 19.5614Z"
    fill="white" />
</svg>