<svg viewBox="0 0 48 48" xmlns="http://www.w3.org/2000/svg" xmlns:svg="http://www.w3.org/2000/svg">
  <title>
    Sequelize
  </title>
  <path
    d="M 24.0634,0 3.2,11.9844 V 36.0156 L 24.0634,48 44.8212,36.0156 V 11.9844 Z M 24.0086,6.9688 38.868,15.422 V 32.5782 L 24.0086,41.0314 9.3134,32.668 9.1532,15.422 Z m 0.0978,1.1796 c -1.953,1.1254 -3.9038,2.2548 -5.8554,3.3828 v 0.5078 l 5.2148,3.0468 v 0.9648 c 0.271,-0.1562 0.5232,-0.3022 0.8046,-0.4648 l 0.5118,0.3008 v -0.6718 c 1.7688,-1.0136 3.6146,-2.0824 5.1368,-2.961 0.007,-0.2464 0.0054,-0.5068 0.0078,-0.746 -1.9406,-1.1192 -3.8806,-2.2394 -5.8204,-3.3594 z m -7.4258,4.129 c -1.941,1.106 -3.8624,2.2456 -5.7852,3.3828 v 6.8046 c 1.93,1.1106 3.8574,2.2254 5.7852,3.3398 l 0.8046,-0.4648 v -5.832 c 1.7122,-0.989 3.5044,-2.0252 4.9804,-2.879 v -0.9686 z m 14.8866,0.1758 -5.7852,3.3398 v 0.6758 l 5.2734,3.082 v 6.1328 c 0.1708,0.0988 0.341,0.1982 0.5118,0.2968 l 5.7852,-3.3398 V 15.836 Z m -7.2968,4.289 c -1.9272,1.1168 -3.8562,2.2302 -5.7852,3.3438 v 6.8476 c 1.93,1.1106 3.8574,2.2254 5.7852,3.3398 l 5.7852,-3.3438 V 20.125 Z m -12.3946,7.4454 c -0.3254,0.1924 -0.655,0.3778 -0.9804,0.5704 v 6.8046 c 1.9286,1.1142 3.8568,2.229 5.7852,3.3438 l 0.8046,-0.4648 v -5.836 c 0.325,-0.1878 0.6172,-0.3574 0.9454,-0.5468 -0.3258,-0.189 -0.6094,-0.3526 -0.9454,-0.5468 v -1.016 l -0.8046,0.465 c -1.6502,-0.9542 -3.3804,-1.952 -4.8048,-2.7734 z m 24.4962,0.1718 -4.8046,2.7774 C 31.3914,27.035 31.233,26.9424 31.0556,26.84 v 0.668 l -0.9844,0.5704 0.9844,0.5742 v 6.1328 c 0.1708,0.0988 0.341,0.1982 0.5118,0.2968 l 5.7852,-3.3438 v -6.8046 z m -16.9376,4.2774 c -0.3162,0.1826 -0.633,0.3642 -0.9492,0.5468 v 6.8476 c 1.9274,1.115 3.8564,2.2272 5.7852,3.3398 l 5.7852,-3.3398 v -6.8046 l -0.9804,-0.5742 -4.8046,2.7774 C 22.6092,30.469 20.868,29.464 19.4344,28.6368 Z"
    fill="#52b0e7" style="stroke-width:2" />
</svg>