<svg viewBox="0 0 48 48" xmlns="http://www.w3.org/2000/svg" xmlns:svg="http://www.w3.org/2000/svg">

   <title>
      TypeScript
   </title>
   <path
      d="M 2.25,0 C 1.004,0 0,1.004 0,2.25 v 43.5 C 0,46.996 1.004,48 2.25,48 h 43.5 C 46.996,48 48,46.996 48,45.75 V 2.25 C 48,1.004 46.996,0 45.75,0 Z m 34.726,19.5 c 1.224,0 2.308,0.074 3.254,0.222 a 12.76,12.76 0 0 1 2.612,0.68 v 4.916 a 7.9,7.9 0 0 0 -1.286,-0.722 10.186,10.186 0 0 0 -1.434,-0.52 10.906,10.906 0 0 0 -2.852,-0.4 c -0.6,0 -1.146,0.056 -1.638,0.172 a 4.2,4.2 0 0 0 -1.246,0.484 c -0.34,0.208 -0.6,0.458 -0.786,0.748 a 1.776,1.776 0 0 0 -0.28,0.98 c 0,0.392 0.106,0.746 0.312,1.058 0.208,0.312 0.504,0.608 0.886,0.888 0.382,0.28 0.846,0.552 1.392,0.82 0.546,0.27 1.164,0.548 1.852,0.832 0.94,0.394 1.784,0.814 2.532,1.256 0.748,0.444 1.39,0.946 1.926,1.506 0.536,0.558 0.944,1.196 1.228,1.914 0.284,0.718 0.428,1.552 0.428,2.506 0,1.314 -0.25,2.42 -0.746,3.312 a 6.066,6.066 0 0 1 -2.024,2.17 8.76,8.76 0 0 1 -2.974,1.192 c -1.132,0.24 -2.326,0.36 -3.58,0.36 A 19.832,19.832 0 0 1 30.872,43.546 11.088,11.088 0 0 1 27.848,42.56 V 37.3 a 10.066,10.066 0 0 0 6.474,2.4 c 0.666,0 1.248,-0.06 1.744,-0.18 0.498,-0.12 0.912,-0.288 1.246,-0.5 0.332,-0.216 0.58,-0.468 0.746,-0.76 a 2.046,2.046 0 0 0 -0.148,-2.178 4.24,4.24 0 0 0 -1.074,-1 11.194,11.194 0 0 0 -1.614,-0.888 55.44,55.44 0 0 0 -2.014,-0.872 c -1.836,-0.766 -3.204,-1.704 -4.106,-2.81 -0.9,-1.106 -1.352,-2.444 -1.352,-4.01 0,-1.228 0.246,-2.282 0.738,-3.164 0.492,-0.882 1.16,-1.608 2.008,-2.178 a 8.988,8.988 0 0 1 2.94,-1.258 15.072,15.072 0 0 1 3.54,-0.402 z M 6.75,19.876 h 19.126 v 4.332 H 19.012 V 43.5 H 13.578 V 24.208 H 6.75 Z"
      stroke-width="2" fill="#3178c6" />
</svg>