<?xml version="1.0" encoding="UTF-8" standalone="no"?>
<svg
   height="48"
   width="48"
   viewBox="0 0 48 48"
   inkscape:version="1.1.2 (b8e25be833, 2022-02-05)"
   sodipodi:docname="uw.svg"
   version="1.1"
   id="svg849"
   xmlns:inkscape="http://www.inkscape.org/namespaces/inkscape"
   xmlns:sodipodi="http://sodipodi.sourceforge.net/DTD/sodipodi-0.dtd"
   xmlns="http://www.w3.org/2000/svg"
   xmlns:svg="http://www.w3.org/2000/svg">
  <defs
     id="defs14" />
  <sodipodi:namedview
     id="namedview12"
     pagecolor="#ffffff"
     bordercolor="#666666"
     borderopacity="1.0"
     inkscape:pageshadow="2"
     inkscape:pageopacity="0.0"
     inkscape:pagecheckerboard="0"
     showgrid="false"
     inkscape:zoom="10.335892"
     inkscape:cx="25.203437"
     inkscape:cy="21.817179"
     inkscape:window-width="1920"
     inkscape:window-height="1001"
     inkscape:window-x="-9"
     inkscape:window-y="-9"
     inkscape:window-maximized="1" />
  <g
     transform="matrix(0.21621719,0,0,-0.21621719,-19.701062,150.89567)"
     id="g8">
    <g
       id="g6">
      <path
         d="m 245.9,663.2 v -36.664 h 16.3 c -2.1402,-7.962 -7.5753,-28.183 -12.638,-47.019 -6.4923,26.133 -20.788,83.685 -20.788,83.685 L 194.209,663.2 c 0,0 -15.46,-57.558 -22.474,-83.652 -4.6763,18.906 -9.6841,39.138 -11.627,46.988 h 17.184 V 663.2 H 91.117 v -36.664 h 17.858 c 1.9468,-7.7944 29.056,-116.24 29.056,-116.24 l 48.903,-0.002 c 0,0 9.2237,35.06 14.832,56.381 5.3357,-21.332 14.104,-56.379 14.104,-56.379 l 48.896,-0.002 c 0,0 28.557,108.55 30.577,116.24 h 17.773 v 36.664 z m 61.67,-31.121 h -16.497 c 0,0 -30.218,-114.87 -30.577,-116.24 h -40.308 c -0.34442,1.385 -18.283,73.143 -18.283,73.143 0,0 -18.886,-71.78 -19.241,-73.143 h -40.308 c -0.3481,1.3942 -29.062,116.24 -29.062,116.24 H 96.659 v 25.581 h 75.09 v -25.581 h -18.72 l 18.486,-74.707 c 0,0 26.577,98.922 26.944,100.29 h 25.98 c 0.34994,-1.3942 24.91,-100.28 24.91,-100.28 l 20.07,74.703 h -17.98 v 25.581 h 56.13 z"
         fill="#e8d3a2"
         id="path2" />
      <path
         d="m 251.44,657.66 v -25.581 h 17.98 l -20.07,-74.696 c 0,0 -24.562,98.886 -24.912,100.28 h -25.98 c -0.36467,-1.3611 -26.944,-100.28 -26.944,-100.28 l -18.486,74.703 h 18.722 v 25.581 H 96.657 v -25.581 h 16.639 c 0,0 28.71,-114.84 29.06,-116.24 h 40.309 c 0.35362,1.3629 19.236,73.143 19.236,73.143 0,0 17.946,-71.758 18.287,-73.143 h 40.308 c 0.35915,1.374 30.574,116.24 30.574,116.24 h 16.504 v 25.581 z"
         fill="#33006f"
         id="path4" />
    </g>
  </g>
</svg>
