<svg viewBox="0 0 48 48" xmlns="http://www.w3.org/2000/svg" xmlns:svg="http://www.w3.org/2000/svg">
  <title>
    GitHub
  </title>
  <path
    d="M 24,0 C 10.74,0 0,11.018838 0,24.609354 c 0,10.875284 6.876,20.097638 16.41,23.348124 1.2,0.231738 1.64,-0.529102 1.64,-1.1833 0,-0.584472 -0.02,-2.13281 -0.03,-4.18359 -6.676,1.484764 -8.084,-3.301754 -8.084,-3.301754 -1.092,-2.84033 -2.67,-3.599118 -2.67,-3.599118 -2.174,-1.52578 0.168,-1.49502 0.168,-1.49502 2.41,0.17226 3.676,2.534764 3.676,2.534764 2.14,3.76318 5.618,2.676268 6.99,2.046678 0.216,-1.591404 0.834,-2.676268 1.52,-3.2915 -5.33,-0.615234 -10.932,-2.73164 -10.932,-12.161124 0,-2.68652 0.93,-4.880854 2.47,-6.603509 -0.27,-0.621386 -1.08,-3.123337 0.21,-6.513276 0,0 2.01,-0.6603506 6.6,2.522459 1.92,-0.547558 3.96,-0.818261 6,-0.830566 2.04,0.0123 4.08,0.283008 6,0.830566 4.56,-3.1828096 6.57,-2.522459 6.57,-2.522459 1.29,3.389939 0.48,5.89189 0.24,6.513276 1.53,1.722655 2.46,3.916989 2.46,6.603509 0,9.454094 -5.61,11.535636 -10.95,12.140616 0.84,0.73828 1.62,2.247654 1.62,4.55273 0,3.293552 -0.03,5.939058 -0.03,6.738862 0,0.645994 0.42,1.415036 1.65,1.168944 C 41.13,44.696738 48,35.46823 48,24.609354 48,11.018838 37.254,0 24,0"
    fill="#181717" style="stroke-width:2.02524" />
</svg>