<svg viewBox="0 0 48 48" xmlns="http://www.w3.org/2000/svg" xmlns:svg="http://www.w3.org/2000/svg">
  <title>
    Kubernetes
  </title>
  <defs>
    <style>
      .cls-1 {
        fill: #fff
      }

      .cls-2 {
        fill: #326ce5
      }
    </style>
  </defs>
  <path
    d="m 28.549175,27.457798 a 0.8497781,0.8497781 0 0 0 -0.202384,-0.01538 0.87226527,0.87226527 0 0 0 -0.337308,0.08758 0.88173355,0.88173355 0 0 0 -0.426783,1.142111 l -0.0061,0.0087 2.018637,4.876874 a 10.303855,10.303855 0 0 0 4.164859,-5.231698 l -5.201872,-0.87913 z m -8.093959,0.691184 a 0.88055001,0.88055001 0 0 0 -0.844571,-0.685029 0.86540076,0.86540076 0 0 0 -0.173505,0.01538 l -0.0087,-0.01069 -5.156661,0.875343 a 10.342912,10.342912 0 0 0 4.15184,5.194771 l 1.998281,-4.828822 -0.01562,-0.01894 a 0.87179186,0.87179186 0 0 0 0.049,-0.542059 z m 4.318719,1.893657 a 0.8800766,0.8800766 0 0 0 -1.552088,0.0019 h -0.0043 l -2.535841,4.585488 a 10.329183,10.329183 0 0 0 5.637177,0.289966 q 0.520045,-0.118353 1.015946,-0.284048 l -2.54176,-4.593536 z m 8.027681,-10.651816 -3.901641,3.492139 0.0022,0.01113 a 0.88173355,0.88173355 0 0 0 0.345593,1.513741 l 0.0047,0.02107 5.053695,1.455748 a 10.480912,10.480912 0 0 0 -1.50451,-6.493347 z M 25.552938,19.7821 a 0.88173355,0.88173355 0 0 0 1.399648,0.672248 l 0.01538,0.0064 4.269248,-3.027009 a 10.379602,10.379602 0 0 0 -5.98561,-2.885459 l 0.296593,5.232409 z m -4.521104,0.691421 a 0.88055001,0.88055001 0 0 0 1.397518,-0.674615 l 0.02178,-0.01015 0.296595,-5.240693 a 10.576542,10.576542 0 0 0 -1.065419,0.183685 10.288943,10.288943 0 0 0 -4.955934,2.700591 l 4.297179,3.046181 z m -2.29085,3.959873 a 0.88055001,0.88055001 0 0 0 0.346066,-1.513979 l 0.0043,-0.02083 -3.923182,-3.508945 a 10.285866,10.285866 0 0 0 -1.460009,6.51181 l 5.02884,-1.451014 z m 3.810509,1.541435 1.447226,0.695919 1.442966,-0.694499 0.358376,-1.557769 -0.998668,-1.248866 h -1.60724 l -1.001508,1.246973 z"
    class="cls-2" style="stroke-width:0.236707" />
  <path
    d="M 47.923642,29.043972 43.799733,11.131171 A 3.2196885,3.2196885 0 0 0 42.073429,8.9835276 L 25.380615,1.0136032 a 3.2166114,3.2166114 0 0 0 -2.770655,0 L 5.9204598,8.9877881 A 3.2187417,3.2187417 0 0 0 4.1936823,11.135194 L 0.07640099,29.047523 a 3.1517536,3.1517536 0 0 0 -9.469e-4,1.375267 3.1969646,3.1969646 0 0 0 0.11622316,0.406662 3.1008616,3.1008616 0 0 0 0.3178974,0.645264 c 0.0565732,0.0864 0.11622316,0.170429 0.18108091,0.251856 L 12.242903,46.08948 c 0.05042,0.06249 0.106049,0.119536 0.161198,0.177529 a 3.177318,3.177318 0 0 0 0.609284,0.504896 3.2959082,3.2959082 0 0 0 0.912979,0.396958 3.1477296,3.1477296 0 0 0 0.811905,0.111962 h 0.17966 l 18.345739,-0.0043 a 3.075534,3.075534 0 0 0 0.333757,-0.01965 3.1884432,3.1884432 0 0 0 0.470811,-0.08948 3.2835994,3.2835994 0 0 0 0.326892,-0.10463 c 0.08356,-0.03196 0.166878,-0.06391 0.247359,-0.102492 A 3.2999322,3.2999322 0 0 0 34.992576,46.7657 3.1489131,3.1489131 0 0 0 35.758797,46.087535 L 36.111016,45.649677 47.30702,31.721838 a 3.1209817,3.1209817 0 0 0 0.498979,-0.895936 3.2357846,3.2357846 0 0 0 0.118354,-0.408082 3.1439423,3.1439423 0 0 0 -9.47e-4,-1.375268 z m -17.314407,6.96676 a 3.4360388,3.4360388 0 0 0 0.166406,0.403112 0.78444697,0.78444697 0 0 0 -0.0774,0.5894 9.3196277,9.3196277 0 0 0 0.885758,1.585937 8.2989472,8.2989472 0 0 1 0.535668,0.796282 c 0.04024,0.07456 0.09279,0.190076 0.130898,0.2689 a 1.0036376,1.0036376 0 1 1 -1.806074,0.853802 c -0.03811,-0.07812 -0.09113,-0.182265 -0.12356,-0.256117 A 8.3498392,8.3498392 0 0 1 30.030961,39.336465 9.3037684,9.3037684 0 0 0 29.345457,37.656556 0.78941782,0.78941782 0 0 0 28.83559,37.34718 c -0.03196,-0.05515 -0.150308,-0.272214 -0.213746,-0.384175 a 12.928226,12.928226 0 0 1 -9.219264,-0.02368 l -0.226055,0.409504 a 0.81166827,0.81166827 0 0 0 -0.43057,0.209959 6.9868803,6.9868803 0 0 0 -0.773558,1.794712 8.261074,8.261074 0 0 1 -0.28831,0.915583 c -0.03196,0.07338 -0.08545,0.17611 -0.123561,0.253987 v 0.0022 l -0.0016,0.0019 a 1.0031642,1.0031642 0 1 1 -1.80347,-0.855932 c 0.03764,-0.0793 0.08806,-0.1941 0.127822,-0.268663 a 8.3266419,8.3266419 0 0 1 0.535431,-0.798412 9.7589559,9.7589559 0 0 0 0.90422,-1.62523 0.99132888,0.99132888 0 0 0 -0.08901,-0.56502 l 0.181791,-0.435541 a 13.000421,13.000421 0 0 1 -5.760974,-7.192816 l -0.435305,0.07409 A 1.1077887,1.1077887 0 0 0 10.644674,28.657203 9.3556072,9.3556072 0 0 0 8.9034572,29.169675 8.4241651,8.4241651 0 0 1 8.0070483,29.5129 c -0.072196,0.01988 -0.1763467,0.03977 -0.2587207,0.05776 -0.00662,0.0024 -0.012309,0.0052 -0.018937,0.0069 a 0.14320773,0.14320773 0 0 1 -0.015386,0.0014 1.0026908,1.0026908 0 1 1 -0.4435888,-1.946679 l 0.014439,-0.0036 0.00876,-0.0024 c 0.083558,-0.01965 0.1905491,-0.04734 0.2667688,-0.06201 a 8.3486557,8.3486557 0 0 1 0.9586633,-0.07717 9.323415,9.323415 0 0 0 1.7904511,-0.29399 1.3811853,1.3811853 0 0 0 0.429386,-0.433173 l 0.418263,-0.122141 a 12.927279,12.927279 0 0 1 2.038757,-9.012146 l -0.320265,-0.28547 a 1.1096823,1.1096823 0 0 0 -0.200728,-0.576618 9.3182075,9.3182075 0 0 0 -1.485809,-1.043878 8.3439215,8.3439215 0 0 1 -0.828238,-0.484302 c -0.0606,-0.04521 -0.141078,-0.113146 -0.206882,-0.166642 l -0.01492,-0.01037 a 1.0587904,1.0587904 0 0 1 -0.2457018,-1.472791 0.96245063,0.96245063 0 0 1 0.7960458,-0.35222 1.1906362,1.1906362 0 0 1 0.696392,0.262746 c 0.06794,0.05325 0.160961,0.124507 0.221321,0.176346 a 8.3446316,8.3446316 0 0 1 0.658045,0.698285 9.3222314,9.3222314 0 0 0 1.346864,1.217148 0.78894441,0.78894441 0 0 0 0.593424,0.05752 q 0.178477,0.130188 0.360268,0.256116 a 12.850586,12.850586 0 0 1 6.527668,-3.729318 13.031193,13.031193 0 0 1 1.806075,-0.277658 l 0.02368,-0.422284 A 1.0888522,1.0888522 0 0 0 23.247411,10.955296 9.3442453,9.3442453 0 0 0 23.136159,9.1435415 8.3950502,8.3950502 0 0 1 22.999816,8.1933997 c -0.0026,-0.072669 0.0014,-0.1730329 0.0024,-0.2558803 0,-0.00947 -0.0024,-0.018937 -0.0024,-0.027931 a 1.0041111,1.0041111 0 1 1 1.998044,-9.469e-4 c 0,0.087581 0.0052,0.2035681 0.0022,0.2840484 a 8.3105458,8.3105458 0 0 1 -0.137053,0.9499051 9.3577375,9.3577375 0 0 0 -0.113145,1.812229 0.79154818,0.79154818 0 0 0 0.326418,0.499452 c 0.0036,0.07219 0.01538,0.313163 0.02414,0.445955 a 13.092027,13.092027 0 0 1 8.29232,4.006739 l 0.380151,-0.271502 a 1.1101558,1.1101558 0 0 0 0.60597,-0.0658 9.3575009,9.3575009 0 0 0 1.346863,-1.218568 8.2856916,8.2856916 0 0 1 0.659702,-0.698286 c 0.0613,-0.05254 0.15386,-0.123087 0.221558,-0.176583 a 1.0041111,1.0041111 0 1 1 1.244605,1.561793 c -0.06699,0.0542 -0.155516,0.129714 -0.2199,0.177531 a 8.3072319,8.3072319 0 0 1 -0.830132,0.484302 9.3487426,9.3487426 0 0 0 -1.48581,1.043876 0.78989123,0.78989123 0 0 0 -0.187471,0.56573 c -0.05562,0.05113 -0.25091,0.224162 -0.354351,0.317897 a 12.980302,12.980302 0 0 1 2.081127,8.990843 l 0.403349,0.117407 a 1.1231747,1.1231747 0 0 0 0.430808,0.433174 9.3414048,9.3414048 0 0 0 1.791397,0.294936 8.4362372,8.4362372 0 0 1 0.957717,0.07669 c 0.08403,0.01538 0.205462,0.049 0.291151,0.06865 a 1.0026908,1.0026908 0 1 1 -0.444537,1.946442 l -0.01443,-0.0019 c -0.0067,-0.0016 -0.01279,-0.0052 -0.01965,-0.0071 -0.08237,-0.01775 -0.185815,-0.03574 -0.258011,-0.05468 a 8.3178837,8.3178837 0 0 1 -0.895936,-0.346065 9.3444819,9.3444819 0 0 0 -1.742874,-0.51247 0.78989123,0.78989123 0 0 0 -0.559102,0.207591 q -0.213036,-0.04048 -0.427018,-0.0748 a 12.999948,12.999948 0 0 1 -5.758609,7.244418 z"
    class="cls-2" style="stroke-width:0.236707" />
  <path
    d="m 40.72917,27.609291 c -0.08522,-0.01965 -0.206882,-0.05326 -0.29044,-0.06865 a 8.4367106,8.4367106 0 0 0 -0.957716,-0.07717 9.3414048,9.3414048 0 0 1 -1.791871,-0.29399 1.1231747,1.1231747 0 0 1 -0.430808,-0.433647 l -0.403349,-0.117407 a 12.980302,12.980302 0 0 0 -2.080654,-8.990843 c 0.103201,-0.09373 0.298725,-0.266769 0.353877,-0.31766 a 0.79012794,0.79012794 0 0 1 0.187472,-0.56573 9.3487426,9.3487426 0 0 1 1.48581,-1.043878 8.3072319,8.3072319 0 0 0 0.830131,-0.484303 c 0.06438,-0.04782 0.152439,-0.12356 0.219901,-0.177529 a 1.0041111,1.0041111 0 1 0 -1.244132,-1.562267 c -0.06817,0.05373 -0.160961,0.124272 -0.221558,0.17682 a 8.2856916,8.2856916 0 0 0 -0.660175,0.698286 9.3577375,9.3577375 0 0 1 -1.346864,1.218567 1.1101558,1.1101558 0 0 1 -0.605969,0.0658 l -0.380151,0.271502 a 13.092027,13.092027 0 0 0 -8.29232,-4.006739 c -0.0093,-0.132792 -0.0206,-0.373286 -0.02415,-0.445955 A 0.79154818,0.79154818 0 0 1 24.750264,10.95505 9.3577375,9.3577375 0 0 1 24.86341,9.1428214 8.3112559,8.3112559 0 0 0 24.999517,8.1931532 c 0.0031,-0.080481 -0.0016,-0.1974137 -0.0016,-0.2842851 a 1.0041111,1.0041111 0 1 0 -1.998044,9.468e-4 c 0,0.00947 0.0022,0.018464 0.0024,0.027931 -9.47e-4,0.082847 -0.005,0.1832112 -0.0024,0.2556435 a 8.3974172,8.3974172 0 0 0 0.136343,0.9503787 9.3440085,9.3440085 0 0 1 0.111252,1.8117549 1.0890889,1.0890889 0 0 1 -0.324288,0.516496 l -0.02368,0.422757 a 13.031193,13.031193 0 0 0 -1.806074,0.277658 12.850586,12.850586 0 0 0 -6.526958,3.729081 Q 14.384171,15.775824 14.20522,15.645399 a 0.78894441,0.78894441 0 0 1 -0.593187,-0.05752 9.3222314,9.3222314 0 0 1 -1.346864,-1.216911 8.345105,8.345105 0 0 0 -0.657335,-0.698285 c -0.06084,-0.05207 -0.153859,-0.123088 -0.222031,-0.17753 a 1.1906362,1.1906362 0 0 0 -0.696392,-0.262746 0.96245063,0.96245063 0 0 0 -0.7960461,0.352695 1.0587904,1.0587904 0 0 0 0.2457021,1.47279 l 0.01538,0.01091 c 0.06533,0.05349 0.145812,0.121905 0.206409,0.166169 a 8.3453418,8.3453418 0 0 0 0.828237,0.484775 9.3184442,9.3184442 0 0 1 1.485573,1.044352 1.1101558,1.1101558 0 0 1 0.200965,0.576145 l 0.319791,0.285941 a 12.927279,12.927279 0 0 0 -2.038284,9.012147 l -0.418262,0.121672 A 1.3811853,1.3811853 0 0 1 10.30949,27.192466 9.3238884,9.3238884 0 0 1 8.5188015,27.48764 8.3477088,8.3477088 0 0 0 7.5603749,27.56481 C 7.4836819,27.57902 7.3771638,27.606 7.2936062,27.62682 l -0.00876,0.0019 -0.014203,0.0043 a 1.0026908,1.0026908 0 1 0 0.4438256,1.946677 l 0.014912,-0.0024 c 0.00662,-0.0014 0.012309,-0.0047 0.018937,-0.0059 0.082374,-0.01894 0.1860518,-0.03858 0.258484,-0.05823 a 8.4244019,8.4244019 0 0 0 0.8961733,-0.343462 9.3563173,9.3563173 0 0 1 1.7416889,-0.512472 1.1077887,1.1077887 0 0 1 0.574253,0.202859 l 0.43554,-0.07456 a 13.000421,13.000421 0 0 0 5.761448,7.192816 l -0.182028,0.43554 a 0.99132888,0.99132888 0 0 1 0.08924,0.56502 9.7589559,9.7589559 0 0 1 -0.904221,1.624757 8.3280621,8.3280621 0 0 0 -0.535668,0.798175 c -0.03977,0.07527 -0.09018,0.19055 -0.128295,0.269374 a 1.0031642,1.0031642 0 1 0 1.803943,0.855932 l 0.0016,-0.0019 v -0.0024 c 0.03787,-0.07812 0.0916,-0.180608 0.123561,-0.25375 a 8.2617842,8.2617842 0 0 0 0.28831,-0.915583 6.9868803,6.9868803 0 0 1 0.773558,-1.794712 0.81190498,0.81190498 0 0 1 0.43057,-0.210196 l 0.226528,-0.409503 a 12.928226,12.928226 0 0 0 9.218791,0.02343 c 0.06343,0.113145 0.181791,0.329496 0.213036,0.384175 a 0.78941782,0.78941782 0 0 1 0.510104,0.310086 9.304005,9.304005 0 0 1 0.685977,1.679673 8.3498392,8.3498392 0 0 0 0.289966,0.915583 c 0.03243,0.07385 0.08521,0.177531 0.12356,0.256117 a 1.0036376,1.0036376 0 1 0 1.806074,-0.853802 c -0.03811,-0.07883 -0.09065,-0.1941 -0.130188,-0.2689 a 8.2989472,8.2989472 0 0 0 -0.535668,-0.796282 9.3196277,9.3196277 0 0 1 -0.885758,-1.585937 0.78444697,0.78444697 0 0 1 0.07669,-0.5894 3.4367488,3.4367488 0 0 1 -0.166405,-0.403112 12.999948,12.999948 0 0 0 5.758609,-7.244417 c 0.129241,0.0206 0.354349,0.05989 0.427492,0.0748 a 0.78989123,0.78989123 0 0 1 0.558628,-0.207592 9.3442453,9.3442453 0 0 1 1.742164,0.512471 8.3167002,8.3167002 0 0 0 0.896646,0.346065 c 0.07219,0.01894 0.175163,0.03693 0.25801,0.05515 0.0069,0.0019 0.01302,0.0047 0.01965,0.0067 l 0.01421,0.0022 a 1.0026908,1.0026908 0 1 0 0.444536,-1.946679 z m -9.49195,-10.175325 -4.269485,3.026773 -0.01491,-0.0071 a 0.88126013,0.88126013 0 0 1 -1.399649,-0.671775 l -0.0047,-0.0024 -0.296594,-5.231935 a 10.379602,10.379602 0 0 1 5.985136,2.886405 z m -8.042831,5.734938 h 1.606767 l 0.998905,1.248866 -0.358139,1.557533 -1.442966,0.694498 -1.447226,-0.695919 -0.358848,-1.558242 z m -1.511611,-8.438131 a 10.574175,10.574175 0 0 1 1.065893,-0.183212 l -0.297068,5.239983 -0.02178,0.01037 a 0.88055001,0.88055001 0 0 1 -1.397518,0.675087 l -0.0083,0.0047 -4.297179,-3.046893 a 10.288943,10.288943 0 0 1 4.955933,-2.700117 z m -6.514176,4.658393 3.923182,3.508945 -0.0043,0.02131 a 0.88055001,0.88055001 0 0 1 -0.346066,1.513742 l -0.004,0.01704 -5.02884,1.451014 a 10.285866,10.285866 0 0 1 1.460015,-6.511814 z m 5.252765,9.321523 -1.998044,4.828112 a 10.343149,10.343149 0 0 1 -4.150894,-5.195245 l 5.156189,-0.875815 0.0087,0.0116 a 0.86516406,0.86516406 0 0 1 0.172795,-0.01538 0.88055001,0.88055001 0 0 1 0.796283,1.227326 z m 5.897792,6.208824 a 10.329183,10.329183 0 0 1 -5.637178,-0.289492 l 2.535843,-4.585489 h 0.0043 a 0.88173355,0.88173355 0 0 1 1.552087,-0.0014 h 0.01894 l 2.542233,4.593062 q -0.494955,0.165221 -1.016183,0.283811 z m 3.276261,-1.361302 -2.018637,-4.877348 0.0061,-0.0087 a 0.88173355,0.88173355 0 0 1 0.426783,-1.141638 0.87226527,0.87226527 0 0 1 0.337308,-0.08758 0.8497781,0.8497781 0 0 1 0.202384,0.01491 l 0.0087,-0.01091 5.202109,0.87913 a 10.303855,10.303855 0 0 1 -4.164859,5.232408 z m 4.71118,-7.674041 -5.054168,-1.455748 -0.0047,-0.02131 a 0.88173355,0.88173355 0 0 1 -0.345593,-1.513741 l -0.0019,-0.01015 3.901404,-3.491665 a 10.481149,10.481149 0 0 1 1.504747,6.492873 z"
    class="cls-1" style="stroke-width:0.236707" />
</svg>